<svg xmlns="http://www.w3.org/2000/svg" width="29.348" height="29.321" viewBox="0 0 29.348 29.321"><g transform="translate(-300.75 -308.749)"><path d="M300.75,435.426V434.11a1.655,1.655,0,0,0,.05-.22,7.8,7.8,0,0,1,.387-1.81,10.289,10.289,0,0,1,5.043-5.791,13.537,13.537,0,0,1,9.537-1.366,11.953,11.953,0,0,1,7.3,4.435,8.526,8.526,0,0,1,.635,9.833,11.651,11.651,0,0,1-10.075,5.823c-3.912.108-7.83.016-11.745.03a1.086,1.086,0,0,1-1.127-.637v-.458a3.629,3.629,0,0,1,.472-.634c.662-.748,1.318-1.5,1.985-2.264-.056-.072-.105-.141-.16-.205A9.6,9.6,0,0,1,301,436.879C300.884,436.4,300.842,435.909,300.75,435.426Zm6.887.914a1.715,1.715,0,1,0-1.728-1.7A1.724,1.724,0,0,0,307.637,436.34Zm6.925-1.7a1.719,1.719,0,1,0-1.723,1.7A1.722,1.722,0,0,0,314.563,434.636Zm5.216-.015a1.719,1.719,0,1,0-1.709,1.719A1.722,1.722,0,0,0,319.779,434.621Z" transform="translate(0 -106.997)" fill="#d5a43d"/><path d="M415.273,327a1.074,1.074,0,0,1-1.155.637c-.752-.031-1.505-.008-2.276-.008a14.568,14.568,0,0,0-.208-1.829,11.185,11.185,0,0,0-3.508-6.089,14.338,14.338,0,0,0-7.815-3.639,15.768,15.768,0,0,0-7.155.591.979.979,0,0,1-.109.032c-.016,0-.034-.008-.074-.018a6.615,6.615,0,0,1,.5-1.652A9.9,9.9,0,0,1,398,310.266a12.383,12.383,0,0,1,5.014-1.469,1.636,1.636,0,0,0,.22-.048H404.9a2.356,2.356,0,0,0,.25.047,12.043,12.043,0,0,1,5.979,2.067,9.212,9.212,0,0,1,3.886,5.327c.118.448.175.912.26,1.369v1.259a2.429,2.429,0,0,0-.052.246,8.362,8.362,0,0,1-1.3,3.62,12.088,12.088,0,0,1-.879,1.173c.3.352.6.685.881,1.03a15.385,15.385,0,0,1,1.346,1.654Z" transform="translate(-85.176 0)" fill="#d5a43d"/></g></svg>