<svg xmlns="http://www.w3.org/2000/svg" width="486.747" height="486.463" viewBox="0 0 486.747 486.463"><g transform="translate(1303.652 1258.548) rotate(17)"><g transform="translate(-1549.524 -899.955)"><path d="M-1528.536-332.862a3.415,3.415,0,0,1,1.6-.015,3.458,3.458,0,0,1,1.282.626,4.79,4.79,0,0,1,1.011,1.09,9.1,9.1,0,0,1,.772,1.378,11.609,11.609,0,0,1,.557,1.494q.226.761.376,1.433t.258,1.381q.11.721.151,1.45a12.606,12.606,0,0,1,0,1.457,8.037,8.037,0,0,1-.208,1.4l-13.732,3.091a13.4,13.4,0,0,1-.726-1.17q-.347-.628-.637-1.3t-.514-1.346q-.224-.678-.369-1.328a12.706,12.706,0,0,1-.246-1.552,8.664,8.664,0,0,1-.012-1.559,6.757,6.757,0,0,1,.284-1.463,4.438,4.438,0,0,1,.638-1.279,3.96,3.96,0,0,1,1.053-1,4.642,4.642,0,0,1,1.542-.619,3.691,3.691,0,0,1,1.158-.08,3.184,3.184,0,0,1,1.048.281,3.1,3.1,0,0,1,.883.62,3.441,3.441,0,0,1,.663.938,4.719,4.719,0,0,1,.251-1.383,3.844,3.844,0,0,1,.636-1.161,3.892,3.892,0,0,1,.992-.871A4.177,4.177,0,0,1-1528.536-332.862Zm-4.869,6.776a1.057,1.057,0,0,0-.5.246,1.231,1.231,0,0,0-.287.395,1.3,1.3,0,0,0-.112.451,1.447,1.447,0,0,0,.023.4,1.42,1.42,0,0,0,.157.4,4.015,4.015,0,0,0,.238.361l2.382-.465a5.51,5.51,0,0,0-.179-.6,2.578,2.578,0,0,0-.343-.657,1.539,1.539,0,0,0-.555-.475A1.2,1.2,0,0,0-1533.4-326.086Zm3.815.738a2.827,2.827,0,0,0,.2.583l2.441-.5c0-.111-.006-.221-.012-.328a1.8,1.8,0,0,0-.041-.31,2.8,2.8,0,0,0-.158-.479,1.474,1.474,0,0,0-.3-.459,1.23,1.23,0,0,0-.476-.3,1.238,1.238,0,0,0-.685-.009,1.3,1.3,0,0,0-.627.3,1.228,1.228,0,0,0-.315.468,1.359,1.359,0,0,0-.082.533A2.82,2.82,0,0,0-1529.59-325.348Z" transform="translate(1544.239 614.953)" fill="#1891c8"/><path d="M-1547.76-380.737q3.877.071,7.7,0t7.693-.17l.813,4.418-1.694-.012a2.353,2.353,0,0,1,.49.458,2.962,2.962,0,0,1,.365.581,3.517,3.517,0,0,1,.237.656,3.825,3.825,0,0,1,.11.658,3.675,3.675,0,0,1-.136,1.422,4.662,4.662,0,0,1-.608,1.276,5.83,5.83,0,0,1-.969,1.1,7.379,7.379,0,0,1-1.213.875,7.484,7.484,0,0,1-1.335.607,6.3,6.3,0,0,1-1.351.307q-.978.107-2.03.184t-2.117.093q-1.064.018-2.113-.027t-2.021-.181q-.08-1.332-.171-2.675t-.259-2.665q.973.147,1.949.287t1.96.231q.983.091,1.963.1a16.051,16.051,0,0,0,1.969-.094c.152-.016.369-.047.649-.093a4.916,4.916,0,0,0,.824-.205,2.363,2.363,0,0,0,.692-.361.6.6,0,0,0,.251-.572.988.988,0,0,0-.434-.7,3.239,3.239,0,0,0-1.014-.472,8.607,8.607,0,0,0-1.426-.279q-.8-.093-1.668-.125t-1.744-.012q-.876.019-1.647.064t-1.38.1q-.61.05-.947.087-.217.024-.422.057t-.42.079q-.055-.709-.12-1.406t-.142-1.4q-.06-.544-.125-1.091T-1547.76-380.737Z" transform="translate(1548.637 639.049)" fill="#1891c8"/><path d="M-1545.594-428.043l6.4,4.9-.075-4.61,4.63-.228.551,9.74-4.276.507-7.086-5.591.485,5.653-4.392.115-.166-10.227Z" transform="translate(1549.524 662.745)" fill="#1891c8"/><path d="M-1543.278-475.652l5.814,5.58.436-4.591,4.627.286-.53,9.741-4.306.03-6.423-6.34-.143,5.673-4.378-.372.967-10.183Z" transform="translate(1548.849 686.765)" fill="#1891c8"/><path d="M-1529.545-522.616a5.95,5.95,0,0,1,2.434,1.014,4.935,4.935,0,0,1,1.48,1.744,5.953,5.953,0,0,1,.606,2.271,9.711,9.711,0,0,1-.181,2.611,5.434,5.434,0,0,1-.368,1.124q-.264.6-.6,1.2t-.7,1.148q-.36.547-.666.965l-4.107-1.309a7.69,7.69,0,0,0,1.233-1.855,8.926,8.926,0,0,0,.718-2.124q.041-.2.083-.5a2.363,2.363,0,0,0,.013-.571,1.212,1.212,0,0,0-.153-.493.592.592,0,0,0-.424-.274.514.514,0,0,0-.374.059.984.984,0,0,0-.3.285,2.089,2.089,0,0,0-.231.433q-.1.248-.17.49c-.047.162-.085.314-.113.457s-.051.257-.068.343a4.742,4.742,0,0,1-.624,1.619,3.808,3.808,0,0,1-1.078,1.133,3.74,3.74,0,0,1-1.454.585,4.583,4.583,0,0,1-1.737-.034,5.028,5.028,0,0,1-2.165-.96,5.378,5.378,0,0,1-1.432-1.7,6.284,6.284,0,0,1-.687-2.17,7.189,7.189,0,0,1,.08-2.357q.1-.525.253-1.075a10.821,10.821,0,0,1,.355-1.082,10.766,10.766,0,0,1,.461-1.028,6.545,6.545,0,0,1,.574-.922l4.27,1.275a13.3,13.3,0,0,0-.717,1.445,7.789,7.789,0,0,0-.477,1.526q-.028.14-.066.36t-.06.467c-.014.165-.019.332-.017.5a2.1,2.1,0,0,0,.057.468.865.865,0,0,0,.18.359.52.52,0,0,0,.332.178.471.471,0,0,0,.4-.1,1.1,1.1,0,0,0,.273-.391,2.706,2.706,0,0,0,.175-.567q.063-.316.108-.63t.083-.585a3.941,3.941,0,0,1,.083-.44,4.455,4.455,0,0,1,.672-1.471,3.648,3.648,0,0,1,1.057-1,3.566,3.566,0,0,1,1.372-.484A4.792,4.792,0,0,1-1529.545-522.616Z" transform="translate(1545.076 710.771)" fill="#1891c8"/><path d="M-1518.429-574.071a7.906,7.906,0,0,1,1.759.8,7.5,7.5,0,0,1,1.452,1.153,7.169,7.169,0,0,1,1.1,1.447,6.643,6.643,0,0,1,.68,1.671,6.745,6.745,0,0,1,.208,1.825,6.745,6.745,0,0,1-.325,1.914,6.835,6.835,0,0,1-.8,1.711,7.108,7.108,0,0,1-1.175,1.377,6.665,6.665,0,0,1-1.466,1.009,6.788,6.788,0,0,1-1.677.593,7.336,7.336,0,0,1-1.807.15,7.034,7.034,0,0,1-1.856-.329,7.6,7.6,0,0,1-1.707-.781,7.569,7.569,0,0,1-1.442-1.149,7.468,7.468,0,0,1-1.1-1.443,6.894,6.894,0,0,1-.7-1.66,6.606,6.606,0,0,1-.233-1.8,6.3,6.3,0,0,1,.3-1.864,8.155,8.155,0,0,1,1.34-2.608,6.272,6.272,0,0,1,2.011-1.7,6.292,6.292,0,0,1,2.536-.7A7.865,7.865,0,0,1-1518.429-574.071Zm-1.193,4.712a3.066,3.066,0,0,0-.911-.145,2.494,2.494,0,0,0-.87.143,2.048,2.048,0,0,0-.728.452,1.822,1.822,0,0,0-.472.785,2.173,2.173,0,0,0-.1.932,2.1,2.1,0,0,0,.275.815,2.224,2.224,0,0,0,.585.65,2.708,2.708,0,0,0,.824.421,3.323,3.323,0,0,0,.915.152,2.724,2.724,0,0,0,.91-.124,2.092,2.092,0,0,0,.769-.439,1.741,1.741,0,0,0,.491-.79,2.056,2.056,0,0,0,.085-.942,2.074,2.074,0,0,0-.312-.826,2.5,2.5,0,0,0-.623-.656A2.846,2.846,0,0,0-1519.622-569.359Z" transform="translate(1538.469 736.349)" fill="#1891c8"/><path d="M-1506.019-622.376l4.061,2.219a3.986,3.986,0,0,0-.361.522,5.774,5.774,0,0,0-.281.557,5.456,5.456,0,0,0-.417,1.434,3.742,3.742,0,0,0,.047,1.382,2.988,2.988,0,0,0,.587,1.2,3.119,3.119,0,0,0,1.205.883,2.875,2.875,0,0,0,1.048.265,1.987,1.987,0,0,0,.9-.166,2.2,2.2,0,0,0,.741-.557,3.447,3.447,0,0,0,.566-.9,4.43,4.43,0,0,0,.26-.793,6.647,6.647,0,0,0,.139-.87,7.3,7.3,0,0,0,.03-.882,7.615,7.615,0,0,0-.065-.829l4.63,2.232a6.983,6.983,0,0,1-.016,1q-.043.518-.138,1.044a9.552,9.552,0,0,1-.244,1.028,7.9,7.9,0,0,1-.339.931,6.742,6.742,0,0,1-1.669,2.351,6.651,6.651,0,0,1-2.327,1.363,7.207,7.207,0,0,1-2.7.359,7.856,7.856,0,0,1-2.783-.677A10.675,10.675,0,0,1-1506-611.1a7.749,7.749,0,0,1-1.861-2.456,6.907,6.907,0,0,1-.653-2.963,8.151,8.151,0,0,1,.756-3.327,9.955,9.955,0,0,1,.727-1.351A5.532,5.532,0,0,1-1506.019-622.376Z" transform="translate(1528.909 760.428)" fill="#1891c8"/><path d="M-1488.856-657.445l12.644,7.89-2.027,4.149-13.17-6.807Z" transform="translate(1520.312 778.056)" fill="#1891c8"/><path d="M-1450.578-691.9l-2.5,4.862-2.407-.859-1.411,2.053,1.725,1.85-3.608,4.283-9.529-11.832,3.19-5.18Zm-7.88,2.432-3.6-1.471,2.675,2.821Z" transform="translate(1508.698 797.797)" fill="#1891c8"/><path d="M-1427-730.088l3.393,3.5-5.423,7.468-11.644-10.395,3.688-4.323,7.107,7.126Z" transform="translate(1494.809 816.456)" fill="#1891c8"/><path d="M-1398.915-772.144l2.914,3.6a3.913,3.913,0,0,0-.532.345,5.8,5.8,0,0,0-.471.409,5.487,5.487,0,0,0-.931,1.168,3.745,3.745,0,0,0-.481,1.3,2.985,2.985,0,0,0,.087,1.335,3.116,3.116,0,0,0,.78,1.275,2.874,2.874,0,0,0,.868.643,1.985,1.985,0,0,0,.893.187,2.191,2.191,0,0,0,.9-.234,3.432,3.432,0,0,0,.866-.621,4.4,4.4,0,0,0,.542-.635,6.712,6.712,0,0,0,.459-.753,7.313,7.313,0,0,0,.363-.8,7.649,7.649,0,0,0,.255-.791l3.436,3.822a6.963,6.963,0,0,1-.392.916q-.237.463-.524.914a9.556,9.556,0,0,1-.615.858,7.94,7.94,0,0,1-.667.733,6.751,6.751,0,0,1-2.437,1.542,6.658,6.658,0,0,1-2.67.378,7.212,7.212,0,0,1-2.63-.692,7.853,7.853,0,0,1-2.317-1.683,10.676,10.676,0,0,1-1.953-2.761,7.746,7.746,0,0,1-.789-2.979,6.911,6.911,0,0,1,.521-2.989,8.162,8.162,0,0,1,1.963-2.792,9.966,9.966,0,0,1,1.186-.974A5.565,5.565,0,0,1-1398.915-772.144Z" transform="translate(1476.363 835.71)" fill="#1891c8"/><path d="M-1359.849-801.356a7.475,7.475,0,0,1,.833,1.312,4.663,4.663,0,0,1,.414,1.291,4.559,4.559,0,0,1,.01,1.348,7.286,7.286,0,0,1-.381,1.487l4.9,2.063-3.293,3.776-4.185-2.644-1.043.865,2.633,3.711-3.711,2.883q-1.486-2-2.962-3.982t-2.953-3.988l-1.494-1.994q-.74-.989-1.459-2.022a14.251,14.251,0,0,1,.9-1.3,14.324,14.324,0,0,1,1-1.144q.527-.541,1.113-1.044t1.223-1a8.449,8.449,0,0,1,2.114-1.206,6.264,6.264,0,0,1,2.26-.449,5.178,5.178,0,0,1,2.187.474A5.061,5.061,0,0,1-1359.849-801.356Zm-3.651,3.28a2.693,2.693,0,0,0-.615-.587,1.866,1.866,0,0,0-.7-.294,1.7,1.7,0,0,0-.751.03,2.133,2.133,0,0,0-.774.4,3.248,3.248,0,0,0-.32.283,2.881,2.881,0,0,0-.269.313l2.355,3.317.207-.161a3.98,3.98,0,0,0,.681-.681,2.853,2.853,0,0,0,.463-.83,2.061,2.061,0,0,0,.1-.9A1.736,1.736,0,0,0-1363.5-798.077Z" transform="translate(1460.564 851.415)" fill="#1891c8"/><path d="M-1314.437-827.958a13.91,13.91,0,0,1,.885,1.688q-1.529,1.082-2.962,2.277t-2.868,2.387a2.711,2.711,0,0,0,1.417.6,2.3,2.3,0,0,0,1.48-.359,3.2,3.2,0,0,0,.729-.641,7.877,7.877,0,0,0,.664-.89q.309-.479.56-.967t.42-.861l2.153,4.5a4.818,4.818,0,0,1-.495.959,6.323,6.323,0,0,1-.684.857,7.914,7.914,0,0,1-.813.744,9.024,9.024,0,0,1-.878.617,6.3,6.3,0,0,1-1.839.785,5.843,5.843,0,0,1-1.814.148,6.094,6.094,0,0,1-1.74-.4,7.3,7.3,0,0,1-1.6-.865,9.1,9.1,0,0,1-1.41-1.249,9.983,9.983,0,0,1-1.166-1.541,11.27,11.27,0,0,1-.907-1.828,10.14,10.14,0,0,1-.546-1.961,8.313,8.313,0,0,1-.1-1.983,6.811,6.811,0,0,1,.4-1.9,6,6,0,0,1,.983-1.708,6.424,6.424,0,0,1,1.642-1.408,5.6,5.6,0,0,1,1.652-.7,4.958,4.958,0,0,1,1.609-.117,5.1,5.1,0,0,1,1.523.391,6.546,6.546,0,0,1,1.405.823,8.6,8.6,0,0,1,1.246,1.171A10.513,10.513,0,0,1-1314.437-827.958Zm-4.021,1.807a3.169,3.169,0,0,0-.385-.5,2,2,0,0,0-.488-.386,1.3,1.3,0,0,0-.557-.164,1.02,1.02,0,0,0-.6.171,1.3,1.3,0,0,0-.533.6,2.268,2.268,0,0,0-.179.8,3.535,3.535,0,0,0,.069.862,5.694,5.694,0,0,0,.205.772l2.594-1.956Z" transform="translate(1437.154 865.691)" fill="#1891c8"/><path d="M-1267.867-864.6l3.774,14.444-5.594,2.694-4.286-6.188,1.624,6.778-5.557,2.773-8.175-11.718,4.733-2.686,4.575,7.4-1.976-7.866,3.878-1.768,4.9,6.651-3.011-8.715Z" transform="translate(1417.103 882.186)" fill="#1891c8"/><path d="M-1219.295-861.9l-1.051-3.105,6.615-2.487,1.193,3.542Z" transform="translate(1384.06 883.636)" fill="#1891c8"/><path d="M-1168.217-879.583a3.419,3.419,0,0,1,.005,1.6,3.453,3.453,0,0,1-.635,1.278,4.792,4.792,0,0,1-1.1,1,9.055,9.055,0,0,1-1.384.763,11.711,11.711,0,0,1-1.5.548q-.763.221-1.435.367t-1.383.249q-.721.105-1.451.14a12.377,12.377,0,0,1-1.457-.014,8.062,8.062,0,0,1-1.4-.217l-3-13.753a13.138,13.138,0,0,1,1.175-.718q.63-.343,1.3-.628t1.35-.5q.679-.219,1.33-.361a12.752,12.752,0,0,1,1.554-.236,8.73,8.73,0,0,1,1.559,0,6.8,6.8,0,0,1,1.461.293,4.451,4.451,0,0,1,1.275.647,3.955,3.955,0,0,1,.99,1.061,4.625,4.625,0,0,1,.608,1.545,3.687,3.687,0,0,1,.072,1.159,3.175,3.175,0,0,1-.288,1.046,3.107,3.107,0,0,1-.626.879,3.429,3.429,0,0,1-.943.657,4.745,4.745,0,0,1,1.382.26,3.839,3.839,0,0,1,1.157.645,3.9,3.9,0,0,1,.864,1A4.165,4.165,0,0,1-1168.217-879.583Zm-6.743-4.914a1.049,1.049,0,0,0-.243-.5,1.2,1.2,0,0,0-.392-.289,1.3,1.3,0,0,0-.45-.115,1.437,1.437,0,0,0-.4.02,1.4,1.4,0,0,0-.4.154,3.779,3.779,0,0,0-.363.235l.449,2.385a5.515,5.515,0,0,0,.6-.175,2.561,2.561,0,0,0,.66-.338,1.537,1.537,0,0,0,.479-.551A1.2,1.2,0,0,0-1174.96-884.5Zm-.763,3.81a2.812,2.812,0,0,0-.584.193l.484,2.444q.167,0,.328-.009a1.809,1.809,0,0,0,.31-.039,2.836,2.836,0,0,0,.48-.154,1.479,1.479,0,0,0,.461-.3,1.228,1.228,0,0,0,.306-.474,1.24,1.24,0,0,0,.014-.685,1.3,1.3,0,0,0-.3-.629,1.238,1.238,0,0,0-.465-.318,1.363,1.363,0,0,0-.533-.086A2.864,2.864,0,0,0-1175.724-880.687Z" transform="translate(1365.262 895.003)" fill="#1891c8"/><path d="M-1117.956-898.433q-.1,3.877-.057,7.7t.118,7.694l-4.423.783.024-1.694a2.343,2.343,0,0,1-.461.486,2.918,2.918,0,0,1-.583.362,3.513,3.513,0,0,1-.657.232,3.873,3.873,0,0,1-.659.106,3.687,3.687,0,0,1-1.421-.145,4.673,4.673,0,0,1-1.272-.617,5.828,5.828,0,0,1-1.089-.975,7.428,7.428,0,0,1-.866-1.219,7.5,7.5,0,0,1-.6-1.339,6.32,6.32,0,0,1-.3-1.353q-.1-.978-.17-2.031t-.08-2.118q-.01-1.065.042-2.113t.194-2.019q1.332-.071,2.676-.154t2.667-.24q-.154.971-.3,1.948t-.244,1.958q-.1.982-.117,1.962a16.076,16.076,0,0,0,.081,1.969q.023.228.089.65a4.981,4.981,0,0,0,.2.826,2.369,2.369,0,0,0,.357.694.6.6,0,0,0,.57.255.99.99,0,0,0,.7-.429,3.238,3.238,0,0,0,.479-1.01,8.585,8.585,0,0,0,.288-1.425q.1-.8.137-1.667t.024-1.744q-.013-.877-.054-1.648t-.086-1.381c-.031-.407-.058-.723-.081-.947q-.022-.217-.054-.423t-.076-.421q.709-.05,1.406-.111t1.4-.133q.543-.056,1.092-.117T-1117.956-898.433Z" transform="translate(1338.874 899.19)" fill="#1891c8"/><path d="M-1067.976-895.852l-5.107,6.235,4.611.075.078,4.635-9.752.235-.368-4.29,5.818-6.9-5.666.3.027-4.393,10.227.166Z" transform="translate(1312.768 899.955)" fill="#1891c8"/><path d="M-1021.691-893.387l-5.619,5.777,4.588.467-.317,4.625-9.737-.6v-4.306l6.383-6.38-5.672-.182.4-4.375,10.176,1.035Z" transform="translate(1289.778 899.151)" fill="#1891c8"/><path d="M-976.667-879.3a5.945,5.945,0,0,1-1.03,2.426,4.93,4.93,0,0,1-1.754,1.468,5.951,5.951,0,0,1-2.275.59,9.726,9.726,0,0,1-2.609-.2,5.474,5.474,0,0,1-1.122-.376q-.6-.269-1.2-.61t-1.144-.7q-.544-.363-.96-.672l1.336-4.1a7.683,7.683,0,0,0,1.847,1.246,8.924,8.924,0,0,0,2.119.733c.135.028.3.057.5.086a2.378,2.378,0,0,0,.571.017,1.211,1.211,0,0,0,.494-.149.594.594,0,0,0,.277-.423.514.514,0,0,0-.057-.374.971.971,0,0,0-.283-.3,2.093,2.093,0,0,0-.432-.234,5.021,5.021,0,0,0-.488-.173q-.242-.072-.456-.117l-.342-.071a4.744,4.744,0,0,1-1.615-.635,3.814,3.814,0,0,1-1.126-1.086,3.739,3.739,0,0,1-.575-1.458,4.592,4.592,0,0,1,.046-1.737,5.026,5.026,0,0,1,.976-2.159,5.389,5.389,0,0,1,1.71-1.421,6.293,6.293,0,0,1,2.175-.672,7.2,7.2,0,0,1,2.357.1q.525.108,1.073.261a10.712,10.712,0,0,1,1.08.363,10.662,10.662,0,0,1,1.025.468,6.511,6.511,0,0,1,.918.58l-1.3,4.261a13.4,13.4,0,0,0-1.44-.727,7.8,7.8,0,0,0-1.523-.487q-.14-.028-.36-.069t-.467-.063q-.246-.022-.5-.02a2.121,2.121,0,0,0-.469.054.871.871,0,0,0-.36.177.519.519,0,0,0-.18.331.471.471,0,0,0,.1.4,1.094,1.094,0,0,0,.389.276,2.69,2.69,0,0,0,.566.178q.315.065.629.113l.584.086a3.86,3.86,0,0,1,.44.086,4.451,4.451,0,0,1,1.466.682,3.649,3.649,0,0,1,.992,1.064,3.565,3.565,0,0,1,.474,1.376A4.776,4.776,0,0,1-976.667-879.3Z" transform="translate(1267.651 895.184)" fill="#1891c8"/><path d="M-926.288-867.854a7.927,7.927,0,0,1-.809,1.754,7.511,7.511,0,0,1-1.163,1.444,7.158,7.158,0,0,1-1.454,1.086,6.684,6.684,0,0,1-1.675.669,6.778,6.778,0,0,1-1.826.2,6.771,6.771,0,0,1-1.912-.338,6.894,6.894,0,0,1-1.706-.817,7.122,7.122,0,0,1-1.368-1.184,6.689,6.689,0,0,1-1-1.472,6.814,6.814,0,0,1-.581-1.682,7.349,7.349,0,0,1-.138-1.808,7.056,7.056,0,0,1,.342-1.854,7.614,7.614,0,0,1,.793-1.7,7.534,7.534,0,0,1,1.159-1.434,7.436,7.436,0,0,1,1.45-1.093,6.921,6.921,0,0,1,1.665-.69,6.591,6.591,0,0,1,1.8-.221,6.318,6.318,0,0,1,1.862.316,8.148,8.148,0,0,1,2.6,1.358,6.265,6.265,0,0,1,1.688,2.023,6.284,6.284,0,0,1,.682,2.541A7.854,7.854,0,0,1-926.288-867.854Zm-4.7-1.224a3.1,3.1,0,0,0,.151-.91,2.5,2.5,0,0,0-.137-.871,2.051,2.051,0,0,0-.447-.731,1.823,1.823,0,0,0-.782-.477,2.175,2.175,0,0,0-.93-.106,2.1,2.1,0,0,0-.817.27,2.234,2.234,0,0,0-.654.581,2.708,2.708,0,0,0-.426.821,3.311,3.311,0,0,0-.158.914,2.728,2.728,0,0,0,.118.911,2.094,2.094,0,0,0,.434.772,1.734,1.734,0,0,0,.787.5,2.058,2.058,0,0,0,.941.092,2.073,2.073,0,0,0,.828-.306,2.5,2.5,0,0,0,.66-.619A2.856,2.856,0,0,0-930.991-869.078Z" transform="translate(1243.107 888.416)" fill="#1891c8"/><path d="M-877.8-855.115l-2.247,4.046a3.929,3.929,0,0,0-.519-.365,5.9,5.9,0,0,0-.555-.285,5.493,5.493,0,0,0-1.431-.427,3.732,3.732,0,0,0-1.383.038,2.978,2.978,0,0,0-1.206.579,3.111,3.111,0,0,0-.892,1.2,2.872,2.872,0,0,0-.272,1.046,1.992,1.992,0,0,0,.16.9,2.193,2.193,0,0,0,.553.745,3.429,3.429,0,0,0,.9.571,4.41,4.41,0,0,0,.791.265,6.654,6.654,0,0,0,.869.145,7.462,7.462,0,0,0,.882.037,7.632,7.632,0,0,0,.829-.06l-2.263,4.615a7.019,7.019,0,0,1-1-.022q-.519-.046-1.043-.145a9.394,9.394,0,0,1-1.026-.251,7.875,7.875,0,0,1-.929-.345,6.75,6.75,0,0,1-2.341-1.685,6.66,6.66,0,0,1-1.347-2.336,7.209,7.209,0,0,1-.34-2.7,7.864,7.864,0,0,1,.7-2.778,10.687,10.687,0,0,1,1.833-2.843,7.744,7.744,0,0,1,2.469-1.845,6.9,6.9,0,0,1,2.967-.633,8.155,8.155,0,0,1,3.322.778,10.052,10.052,0,0,1,1.346.736A5.579,5.579,0,0,1-877.8-855.115Z" transform="translate(1218.826 878.688)" fill="#1891c8"/><path d="M-841.123-837.711-849.1-825.12l-4.135-2.055,6.9-13.124Z" transform="translate(1199.528 869.968)" fill="#1891c8"/><path d="M-811.94-799.209l-4.846-2.527.875-2.4-2.044-1.425-1.861,1.713-4.258-3.637,11.895-9.451,5.158,3.225Zm-2.38-7.9,1.495-3.595-2.839,2.657Z" transform="translate(1184.872 858.225)" fill="#1891c8"/><path d="M-771.591-775.362l-3.521,3.37-7.431-5.473,10.472-11.575,4.3,3.717-7.174,7.059Z" transform="translate(1163.996 844.203)" fill="#1891c8"/><path d="M-730.57-747l-3.615,2.891a3.916,3.916,0,0,0-.342-.535,5.9,5.9,0,0,0-.4-.474,5.488,5.488,0,0,0-1.162-.938,3.748,3.748,0,0,0-1.294-.489,2.986,2.986,0,0,0-1.336.078,3.113,3.113,0,0,0-1.28.771,2.871,2.871,0,0,0-.649.865,1.98,1.98,0,0,0-.193.891,2.179,2.179,0,0,0,.228.9,3.415,3.415,0,0,0,.615.87,4.4,4.4,0,0,0,.631.546,6.709,6.709,0,0,0,.75.464,7.391,7.391,0,0,0,.8.369,7.688,7.688,0,0,0,.789.26l-3.844,3.41a6.935,6.935,0,0,1-.914-.4q-.462-.24-.91-.53a9.416,9.416,0,0,1-.853-.621,7.977,7.977,0,0,1-.729-.672A6.743,6.743,0,0,1-745.8-741.8a6.659,6.659,0,0,1-.36-2.672,7.209,7.209,0,0,1,.709-2.625,7.877,7.877,0,0,1,1.7-2.306,10.679,10.679,0,0,1,2.775-1.934A7.738,7.738,0,0,1-738-752.1a6.913,6.913,0,0,1,2.986.541,8.152,8.152,0,0,1,2.778,1.981,9.962,9.962,0,0,1,.966,1.192A5.567,5.567,0,0,1-730.57-747Z" transform="translate(1145.719 825.64)" fill="#1891c8"/><path d="M-704.182-707.731a7.429,7.429,0,0,1-1.318.823,4.651,4.651,0,0,1-1.293.406,4.572,4.572,0,0,1-1.349,0,7.262,7.262,0,0,1-1.484-.391l-2.1,4.882-3.754-3.319,2.672-4.167-.859-1.049-3.728,2.609-2.858-3.731q2.011-1.472,4-2.935t4.008-2.926l2-1.481q.994-.733,2.031-1.446a14.356,14.356,0,0,1,1.29.911,14.3,14.3,0,0,1,1.137,1.008q.537.531,1.036,1.12t.991,1.23a8.44,8.44,0,0,1,1.192,2.122,6.253,6.253,0,0,1,.433,2.263,5.182,5.182,0,0,1-.488,2.184A5.068,5.068,0,0,1-704.182-707.731Zm-3.255-3.674a2.686,2.686,0,0,0,.592-.611,1.872,1.872,0,0,0,.3-.7,1.706,1.706,0,0,0-.025-.751,2.145,2.145,0,0,0-.4-.777,3.271,3.271,0,0,0-.281-.322,2.95,2.95,0,0,0-.311-.271l-3.334,2.334.16.208a3.969,3.969,0,0,0,.677.685,2.843,2.843,0,0,0,.826.469,2.067,2.067,0,0,0,.9.111A1.733,1.733,0,0,0-707.437-711.405Z" transform="translate(1132.683 809.728)" fill="#1891c8"/><path d="M-675.423-662.133a13.821,13.821,0,0,1-1.694.873q-1.071-1.535-2.257-2.977t-2.368-2.884a2.713,2.713,0,0,0-.613,1.412,2.3,2.3,0,0,0,.349,1.482,3.218,3.218,0,0,0,.636.733,7.931,7.931,0,0,0,.886.67q.476.312.963.566t.858.425l-4.515,2.123a4.855,4.855,0,0,1-.955-.5,6.387,6.387,0,0,1-.853-.691,7.924,7.924,0,0,1-.738-.818,8.975,8.975,0,0,1-.611-.882,6.289,6.289,0,0,1-.773-1.845,5.825,5.825,0,0,1-.136-1.815,6.1,6.1,0,0,1,.41-1.737,7.287,7.287,0,0,1,.876-1.591,9.042,9.042,0,0,1,1.259-1.4,10,10,0,0,1,1.549-1.156,11.267,11.267,0,0,1,1.834-.895,10.14,10.14,0,0,1,1.965-.533,8.311,8.311,0,0,1,1.983-.09,6.8,6.8,0,0,1,1.895.417,5.98,5.98,0,0,1,1.7.994,6.419,6.419,0,0,1,1.4,1.652,5.581,5.581,0,0,1,.691,1.657,4.936,4.936,0,0,1,.106,1.609,5.122,5.122,0,0,1-.4,1.521,6.563,6.563,0,0,1-.833,1.4,8.6,8.6,0,0,1-1.179,1.238A10.526,10.526,0,0,1-675.423-662.133Zm-1.779-4.032a3.176,3.176,0,0,0,.5-.382,1.987,1.987,0,0,0,.389-.485,1.3,1.3,0,0,0,.168-.556,1.017,1.017,0,0,0-.167-.6,1.305,1.305,0,0,0-.6-.537,2.261,2.261,0,0,0-.8-.185,3.57,3.57,0,0,0-.863.063,5.758,5.758,0,0,0-.773.2l1.939,2.608Z" transform="translate(1116.104 786.219)" fill="#1891c8"/><path d="M-643.966-615.368l-14.47,3.676-2.656-5.611,6.218-4.244-6.789,1.579-2.735-5.576,11.772-8.1,2.654,4.751-7.433,4.525,7.879-1.923,1.742,3.89-6.684,4.86,8.735-2.953Z" transform="translate(1104.609 766.09)" fill="#1891c8"/><path d="M-631.881-566.761l3.112-1.031,2.442,6.632-3.55,1.169Z" transform="translate(1088.264 732.991)" fill="#1891c8"/><path d="M-625.577-515.57a3.414,3.414,0,0,1-1.6-.006,3.459,3.459,0,0,1-1.274-.644,4.8,4.8,0,0,1-1-1.1,9.108,9.108,0,0,1-.754-1.388,11.684,11.684,0,0,1-.537-1.5q-.216-.765-.357-1.438t-.239-1.385q-.1-.721-.131-1.452a12.586,12.586,0,0,1,.024-1.457,8.039,8.039,0,0,1,.227-1.4l13.772-2.9a13.328,13.328,0,0,1,.71,1.18q.339.633.619,1.305t.5,1.353q.215.681.352,1.333a12.869,12.869,0,0,1,.225,1.555,8.634,8.634,0,0,1-.008,1.559,6.782,6.782,0,0,1-.3,1.459,4.447,4.447,0,0,1-.655,1.27,3.958,3.958,0,0,1-1.067.982,4.64,4.64,0,0,1-1.55.6,3.679,3.679,0,0,1-1.159.064,3.191,3.191,0,0,1-1.044-.295,3.106,3.106,0,0,1-.874-.632,3.438,3.438,0,0,1-.651-.947,4.728,4.728,0,0,1-.27,1.38,3.844,3.844,0,0,1-.652,1.152,3.888,3.888,0,0,1-1,.857A4.167,4.167,0,0,1-625.577-515.57Zm1.155-7.5a2.812,2.812,0,0,0-.189-.586l-2.448.468c0,.111,0,.22.008.328a1.8,1.8,0,0,0,.037.31,2.831,2.831,0,0,0,.151.482,1.474,1.474,0,0,0,.3.463,1.226,1.226,0,0,0,.472.308,1.235,1.235,0,0,0,.685.019,1.293,1.293,0,0,0,.631-.294,1.239,1.239,0,0,0,.322-.464,1.362,1.362,0,0,0,.09-.533A2.823,2.823,0,0,0-624.422-523.068Zm3.8.789a1.053,1.053,0,0,0,.5-.239,1.222,1.222,0,0,0,.292-.391,1.31,1.31,0,0,0,.118-.449,1.451,1.451,0,0,0-.017-.4,1.4,1.4,0,0,0-.152-.4,3.877,3.877,0,0,0-.232-.365l-2.388.433a5.4,5.4,0,0,0,.171.6,2.567,2.567,0,0,0,.334.661,1.531,1.531,0,0,0,.548.482A1.2,1.2,0,0,0-620.618-522.28Z" transform="translate(1088.06 714.118)" fill="#1891c8"/><path d="M-606.777-465.194q-3.876-.123-7.7-.108t-7.695.067l-.753-4.429,1.694.035a2.37,2.37,0,0,1-.483-.464,2.912,2.912,0,0,1-.358-.586,3.476,3.476,0,0,1-.228-.658,3.823,3.823,0,0,1-.1-.66,3.673,3.673,0,0,1,.155-1.42,4.66,4.66,0,0,1,.625-1.268,5.846,5.846,0,0,1,.983-1.082,7.384,7.384,0,0,1,1.224-.858,7.516,7.516,0,0,1,1.343-.59,6.323,6.323,0,0,1,1.356-.289q.979-.093,2.032-.156t2.118-.066q1.065,0,2.113.056t2.018.207q.061,1.333.135,2.677t.223,2.668q-.971-.16-1.946-.313t-1.957-.258q-.981-.1-1.961-.13a15.933,15.933,0,0,0-1.969.068q-.229.022-.651.085a5,5,0,0,0-.827.194,2.363,2.363,0,0,0-.7.352.6.6,0,0,0-.259.568.989.989,0,0,0,.424.706,3.249,3.249,0,0,0,1.007.485,8.546,8.546,0,0,0,1.422.3q.8.1,1.667.148t1.743.036q.877-.007,1.648-.042t1.382-.078q.61-.042.947-.074c.145-.014.286-.031.423-.052s.278-.045.421-.073q.046.709.1,1.406t.123,1.4q.052.544.11,1.093T-606.777-465.194Z" transform="translate(1083.763 687.719)" fill="#1891c8"/><path d="M-608.727-415.385l-6.234-5.107-.075,4.611-4.635.078-.235-9.753,4.29-.368,6.9,5.817-.3-5.666,4.393.027-.166,10.227Z" transform="translate(1082.246 661.68)" fill="#1891c8"/><path d="M-612.131-369.032l-5.739-5.657-.5,4.585-4.623-.348.661-9.733,4.306.028,6.337,6.426.22-5.67,4.372.43-1.1,10.169Z" transform="translate(1083.796 638.69)" fill="#1891c8"/><path d="M-626.318-324.1a5.949,5.949,0,0,1-2.419-1.047,4.934,4.934,0,0,1-1.457-1.764,5.95,5.95,0,0,1-.575-2.279,9.73,9.73,0,0,1,.216-2.608,5.464,5.464,0,0,1,.384-1.12q.272-.6.618-1.192t.712-1.139q.367-.542.679-.955l4.089,1.364A7.677,7.677,0,0,0-625.33-333a8.922,8.922,0,0,0-.747,2.115c-.029.135-.059.3-.089.495a2.381,2.381,0,0,0-.021.571,1.215,1.215,0,0,0,.146.495.594.594,0,0,0,.421.279.516.516,0,0,0,.375-.054.986.986,0,0,0,.306-.281,2.114,2.114,0,0,0,.237-.43q.1-.246.177-.487c.049-.161.09-.313.12-.455s.054-.257.073-.342a4.747,4.747,0,0,1,.646-1.611,3.8,3.8,0,0,1,1.094-1.119,3.732,3.732,0,0,1,1.462-.565,4.59,4.59,0,0,1,1.736.058,5.029,5.029,0,0,1,2.152.99,5.382,5.382,0,0,1,1.409,1.72,6.291,6.291,0,0,1,.658,2.18,7.182,7.182,0,0,1-.111,2.356q-.112.524-.268,1.072a10.812,10.812,0,0,1-.37,1.077,10.8,10.8,0,0,1-.475,1.022,6.47,6.47,0,0,1-.586.914l-4.252-1.332a13.4,13.4,0,0,0,.737-1.435,7.821,7.821,0,0,0,.5-1.519c.02-.093.043-.213.071-.36s.049-.3.066-.466.024-.332.023-.5a2.129,2.129,0,0,0-.051-.469.868.868,0,0,0-.175-.362.521.521,0,0,0-.33-.182.47.47,0,0,0-.4.1,1.094,1.094,0,0,0-.278.387,2.687,2.687,0,0,0-.182.564c-.045.21-.084.42-.118.629s-.063.4-.091.584a3.734,3.734,0,0,1-.088.44,4.453,4.453,0,0,1-.692,1.461,3.655,3.655,0,0,1-1.07.984,3.572,3.572,0,0,1-1.379.465A4.788,4.788,0,0,1-626.318-324.1Z" transform="translate(1087.713 616.579)" fill="#1891c8"/><path d="M-636.729-273.755a7.942,7.942,0,0,1-1.749-.821,7.528,7.528,0,0,1-1.436-1.172,7.184,7.184,0,0,1-1.076-1.462,6.691,6.691,0,0,1-.657-1.68,6.771,6.771,0,0,1-.184-1.828,6.753,6.753,0,0,1,.351-1.91,6.865,6.865,0,0,1,.828-1.7,7.136,7.136,0,0,1,1.194-1.36,6.7,6.7,0,0,1,1.479-.989,6.782,6.782,0,0,1,1.685-.569,7.31,7.31,0,0,1,1.809-.126,7.018,7.018,0,0,1,1.852.355,7.6,7.6,0,0,1,1.7.8,7.565,7.565,0,0,1,1.425,1.169,7.4,7.4,0,0,1,1.083,1.458,6.886,6.886,0,0,1,.679,1.67,6.58,6.58,0,0,1,.209,1.8,6.319,6.319,0,0,1-.328,1.86,8.147,8.147,0,0,1-1.376,2.589,6.269,6.269,0,0,1-2.034,1.675,6.282,6.282,0,0,1-2.545.664A7.854,7.854,0,0,1-636.729-273.755Zm1.256-4.7a3.1,3.1,0,0,0,.909.158,2.51,2.51,0,0,0,.872-.132,2.036,2.036,0,0,0,.733-.442,1.822,1.822,0,0,0,.482-.778,2.172,2.172,0,0,0,.112-.93,2.1,2.1,0,0,0-.264-.818,2.226,2.226,0,0,0-.576-.658,2.711,2.711,0,0,0-.818-.432,3.308,3.308,0,0,0-.913-.164,2.722,2.722,0,0,0-.912.112,2.1,2.1,0,0,0-.775.429,1.732,1.732,0,0,0-.5.783,2.06,2.06,0,0,0-.1.94,2.1,2.1,0,0,0,.3.831,2.507,2.507,0,0,0,.615.664A2.863,2.863,0,0,0-635.473-278.451Z" transform="translate(1093.268 592.042)" fill="#1891c8"/><path d="M-651.112-225.357l-4.031-2.274a3.923,3.923,0,0,0,.368-.516,5.76,5.76,0,0,0,.289-.553,5.5,5.5,0,0,0,.437-1.429,3.737,3.737,0,0,0-.029-1.383,2.979,2.979,0,0,0-.571-1.21,3.111,3.111,0,0,0-1.193-.9,2.864,2.864,0,0,0-1.044-.279,1.973,1.973,0,0,0-.9.154,2.184,2.184,0,0,0-.749.547,3.418,3.418,0,0,0-.577.9,4.368,4.368,0,0,0-.271.789,6.62,6.62,0,0,0-.151.868,7.446,7.446,0,0,0-.042.882,7.544,7.544,0,0,0,.054.83l-4.6-2.294a6.981,6.981,0,0,1,.028-1q.051-.518.152-1.042a9.3,9.3,0,0,1,.258-1.024,7.841,7.841,0,0,1,.351-.927,6.74,6.74,0,0,1,1.7-2.329,6.652,6.652,0,0,1,2.344-1.332,7.21,7.21,0,0,1,2.7-.322,7.86,7.86,0,0,1,2.773.714,10.682,10.682,0,0,1,2.83,1.853,7.734,7.734,0,0,1,1.827,2.481,6.9,6.9,0,0,1,.613,2.972,8.151,8.151,0,0,1-.8,3.316,9.95,9.95,0,0,1-.745,1.342A5.563,5.563,0,0,1-651.112-225.357Z" transform="translate(1104.473 567.83)" fill="#1891c8"/><path d="M-668.316-188.842l-12.537-8.059,2.082-4.121,13.077,6.983Z" transform="translate(1112.88 548.631)" fill="#1891c8"/><path d="M-709.66-159.868l2.56-4.829,2.395.891,1.439-2.034-1.7-1.872,3.665-4.234,9.37,11.958-3.26,5.137Zm7.912-2.327,3.584,1.519-2.637-2.857Z" transform="translate(1127.36 534.016)" fill="#1891c8"/><path d="M-733.055-119.7l-3.346-3.544,5.523-7.395,11.5,10.55-3.746,4.273-7.011-7.22Z" transform="translate(1140.802 513.253)" fill="#1891c8"/><path d="M-759.585-78.848l-2.866-3.634a3.926,3.926,0,0,0,.537-.338,5.88,5.88,0,0,0,.477-.4,5.478,5.478,0,0,0,.945-1.156,3.727,3.727,0,0,0,.5-1.291A2.97,2.97,0,0,0-760.062-87a3.108,3.108,0,0,0-.762-1.285,2.876,2.876,0,0,0-.86-.654,1.988,1.988,0,0,0-.89-.2,2.2,2.2,0,0,0-.9.222,3.438,3.438,0,0,0-.874.609,4.426,4.426,0,0,0-.55.628,6.565,6.565,0,0,0-.469.746,7.253,7.253,0,0,0-.374.8,7.6,7.6,0,0,0-.265.787l-3.384-3.867a6.94,6.94,0,0,1,.4-.911q.243-.46.536-.907a9.433,9.433,0,0,1,.627-.849,7.919,7.919,0,0,1,.677-.724,6.737,6.737,0,0,1,2.457-1.509,6.642,6.642,0,0,1,2.674-.342,7.211,7.211,0,0,1,2.62.727,7.872,7.872,0,0,1,2.295,1.714,10.674,10.674,0,0,1,1.916,2.788,7.742,7.742,0,0,1,.75,2.99A6.913,6.913,0,0,1-755-83.26a8.155,8.155,0,0,1-2,2.765,9.975,9.975,0,0,1-1.2.958A5.548,5.548,0,0,1-759.585-78.848Z" transform="translate(1157.385 495.077)" fill="#1891c8"/><path d="M-802.54-52.738a7.443,7.443,0,0,1-.814-1.322,4.656,4.656,0,0,1-.4-1.3,4.565,4.565,0,0,1,.008-1.349,7.322,7.322,0,0,1,.4-1.481l-4.868-2.129,3.344-3.732,4.149,2.7,1.055-.851-2.584-3.746,3.749-2.832q1.459,2.021,2.908,4.021t2.9,4.027l1.467,2.014q.727,1,1.432,2.041a14.338,14.338,0,0,1-.92,1.284,14.3,14.3,0,0,1-1.016,1.13q-.535.533-1.126,1.029t-1.237.982a8.454,8.454,0,0,1-2.13,1.178,6.265,6.265,0,0,1-2.266.418,5.182,5.182,0,0,1-2.181-.5A5.066,5.066,0,0,1-802.54-52.738Zm3.7-3.23a2.674,2.674,0,0,0,.607.6,1.869,1.869,0,0,0,.695.3,1.713,1.713,0,0,0,.752-.02,2.152,2.152,0,0,0,.78-.391,3.282,3.282,0,0,0,.324-.279,2.9,2.9,0,0,0,.273-.309l-2.311-3.349-.209.158a3.965,3.965,0,0,0-.691.672,2.847,2.847,0,0,0-.473.824,2.056,2.056,0,0,0-.117.9A1.736,1.736,0,0,0-798.845-55.968Z" transform="translate(1176.897 482.158)" fill="#1891c8"/><path d="M-843.778-24.284a13.947,13.947,0,0,1-.862-1.7q1.543-1.062,2.992-2.238t2.9-2.348a2.713,2.713,0,0,0-1.408-.623,2.294,2.294,0,0,0-1.484.339,3.178,3.178,0,0,0-.737.631,7.916,7.916,0,0,0-.677.881q-.315.474-.573.959t-.431.855l-2.093-4.529a4.815,4.815,0,0,1,.507-.952,6.319,6.319,0,0,1,.7-.848,7.9,7.9,0,0,1,.822-.733,9,9,0,0,1,.886-.605,6.3,6.3,0,0,1,1.85-.76,5.822,5.822,0,0,1,1.816-.123,6.1,6.1,0,0,1,1.735.422,7.319,7.319,0,0,1,1.585.886,9.088,9.088,0,0,1,1.394,1.268,9.969,9.969,0,0,1,1.145,1.556,11.268,11.268,0,0,1,.882,1.841,10.147,10.147,0,0,1,.519,1.968,8.289,8.289,0,0,1,.077,1.984,6.789,6.789,0,0,1-.43,1.892,5.975,5.975,0,0,1-1.006,1.695,6.42,6.42,0,0,1-1.661,1.386,5.593,5.593,0,0,1-1.662.68,4.943,4.943,0,0,1-1.61.1,5.117,5.117,0,0,1-1.518-.411,6.538,6.538,0,0,1-1.394-.842,8.583,8.583,0,0,1-1.23-1.187A10.553,10.553,0,0,1-843.778-24.284Zm4.044-1.753a3.173,3.173,0,0,0,.378.506,2,2,0,0,0,.483.393,1.306,1.306,0,0,0,.555.172,1.017,1.017,0,0,0,.6-.163,1.3,1.3,0,0,0,.541-.6,2.258,2.258,0,0,0,.19-.8,3.562,3.562,0,0,0-.057-.863,5.833,5.833,0,0,0-.195-.774l-2.621,1.921Z" transform="translate(1195.969 465.733)" fill="#1891c8"/><path d="M-898.847,6.867l-3.578-14.495,5.629-2.618,4.2,6.246-1.532-6.8,5.594-2.7,8.016,11.827L-885.284.953l-4.475-7.464,1.87,7.892-3.9,1.715-4.815-6.717,2.894,8.755Z" transform="translate(1224.255 454.37)" fill="#1891c8"/><path d="M-933.2,18.667l1.009,3.119-6.648,2.4-1.145-3.558Z" transform="translate(1243.134 438.203)" fill="#1891c8"/><path d="M-991.512,24.6a3.416,3.416,0,0,1,.017-1.6,3.466,3.466,0,0,1,.652-1.269,4.8,4.8,0,0,1,1.111-.988A9.058,9.058,0,0,1-988.339,20a11.609,11.609,0,0,1,1.5-.527q.766-.21,1.44-.347t1.387-.23q.722-.1,1.452-.121a12.587,12.587,0,0,1,1.457.035,8.105,8.105,0,0,1,1.4.236l2.811,13.792a13.206,13.206,0,0,1-1.185.7q-.635.335-1.31.61t-1.357.486q-.682.21-1.335.342a12.807,12.807,0,0,1-1.556.215,8.665,8.665,0,0,1-1.56-.019,6.761,6.761,0,0,1-1.457-.313,4.445,4.445,0,0,1-1.266-.663,3.964,3.964,0,0,1-.975-1.074,4.625,4.625,0,0,1-.587-1.554,3.674,3.674,0,0,1-.056-1.159,3.181,3.181,0,0,1,.3-1.042,3.114,3.114,0,0,1,.638-.87,3.45,3.45,0,0,1,.951-.644,4.718,4.718,0,0,1-1.378-.279,3.834,3.834,0,0,1-1.148-.66,3.878,3.878,0,0,1-.851-1.01A4.174,4.174,0,0,1-991.512,24.6Zm7.491,1.206a2.793,2.793,0,0,0,.586-.186l-.451-2.45q-.167,0-.328,0a1.858,1.858,0,0,0-.31.035,2.87,2.87,0,0,0-.483.148,1.479,1.479,0,0,0-.465.294,1.232,1.232,0,0,0-.312.47,1.24,1.24,0,0,0-.023.685,1.3,1.3,0,0,0,.289.633,1.243,1.243,0,0,0,.462.325,1.377,1.377,0,0,0,.532.093A2.858,2.858,0,0,0-984.021,25.8Zm-.815,3.8a1.054,1.054,0,0,0,.236.5,1.215,1.215,0,0,0,.388.295,1.311,1.311,0,0,0,.448.121,1.445,1.445,0,0,0,.4-.014,1.406,1.406,0,0,0,.4-.149,3.772,3.772,0,0,0,.366-.23l-.416-2.391a5.524,5.524,0,0,0-.6.166,2.571,2.571,0,0,0-.664.329,1.536,1.536,0,0,0-.486.544A1.2,1.2,0,0,0-984.836,29.6Z" transform="translate(1269.078 438.154)" fill="#1891c8"/><path d="M-1039.794,43.035q.148-3.876.159-7.7t-.015-7.695l4.434-.724-.047,1.694a2.338,2.338,0,0,1,.468-.48,2.934,2.934,0,0,1,.588-.354,3.554,3.554,0,0,1,.661-.223,3.845,3.845,0,0,1,.661-.1,3.689,3.689,0,0,1,1.419.165,4.668,4.668,0,0,1,1.263.634,5.82,5.82,0,0,1,1.075.991,7.391,7.391,0,0,1,.85,1.229,7.5,7.5,0,0,1,.581,1.347,6.325,6.325,0,0,1,.28,1.358q.087.98.142,2.033t.052,2.118q0,1.065-.07,2.113t-.221,2.016q-1.335.053-2.678.118t-2.67.2q.166-.969.326-1.944t.27-1.955q.11-.98.144-1.96a15.938,15.938,0,0,0-.055-1.97q-.02-.228-.079-.651a5.057,5.057,0,0,0-.189-.828,2.347,2.347,0,0,0-.348-.7.6.6,0,0,0-.566-.263.989.989,0,0,0-.709.42,3.244,3.244,0,0,0-.492,1,8.574,8.574,0,0,0-.307,1.42q-.111.8-.159,1.666t-.048,1.743q0,.877.031,1.648t.068,1.382q.038.611.068.948.019.218.049.424c.02.137.043.278.07.422q-.709.041-1.407.093t-1.4.114q-.544.048-1.094.1T-1039.794,43.035Z" transform="translate(1293.305 434.056)" fill="#1891c8"/><path d="M-1087.438,40.812l5.107-6.234-4.611-.075-.078-4.635,9.753-.235.368,4.29-5.817,6.9,5.666-.3-.027,4.393-10.227-.166Z" transform="translate(1317.253 432.692)" fill="#1891c8"/><path d="M-1134.76,37.033l5.7-5.7-4.582-.528.379-4.621,9.729.726-.057,4.306-6.468,6.294,5.669.258-.46,4.369-10.161-1.172Z" transform="translate(1341.169 434.426)" fill="#1891c8"/><path d="M-1181.425,22.565a5.952,5.952,0,0,1,1.063-2.413,4.933,4.933,0,0,1,1.773-1.444,5.951,5.951,0,0,1,2.283-.56,9.709,9.709,0,0,1,2.606.233,5.484,5.484,0,0,1,1.117.391q.594.277,1.188.626t1.134.72q.539.371.951.685l-1.392,4.08a7.693,7.693,0,0,0-1.829-1.271,8.969,8.969,0,0,0-2.109-.761q-.2-.044-.494-.092a2.382,2.382,0,0,0-.571-.025,1.211,1.211,0,0,0-.5.143.593.593,0,0,0-.283.419.517.517,0,0,0,.052.375.984.984,0,0,0,.279.308,2.106,2.106,0,0,0,.428.24q.245.1.486.18t.455.122l.342.076a4.75,4.75,0,0,1,1.606.656,3.807,3.807,0,0,1,1.111,1.1,3.742,3.742,0,0,1,.556,1.465,4.592,4.592,0,0,1-.07,1.736,5.034,5.034,0,0,1-1,2.146,5.392,5.392,0,0,1-1.73,1.4,6.283,6.283,0,0,1-2.184.643,7.2,7.2,0,0,1-2.355-.128q-.523-.115-1.069-.275a10.755,10.755,0,0,1-1.075-.377,10.734,10.734,0,0,1-1.019-.481,6.492,6.492,0,0,1-.91-.593l1.361-4.243a13.354,13.354,0,0,0,1.43.747,7.777,7.777,0,0,0,1.516.507c.092.02.212.045.358.074s.3.052.466.07a4.9,4.9,0,0,0,.5.027,2.11,2.11,0,0,0,.469-.048.86.86,0,0,0,.362-.172.515.515,0,0,0,.184-.328.47.47,0,0,0-.1-.4,1.091,1.091,0,0,0-.386-.281,2.678,2.678,0,0,0-.563-.186q-.315-.069-.628-.122l-.583-.095a3.848,3.848,0,0,1-.438-.091,4.46,4.46,0,0,1-1.457-.7,3.652,3.652,0,0,1-.976-1.077,3.567,3.567,0,0,1-.457-1.382A4.781,4.781,0,0,1-1181.425,22.565Z" transform="translate(1365.08 438.47)" fill="#1891c8"/><path d="M-1232.548,11.8a7.887,7.887,0,0,1,.833-1.742,7.494,7.494,0,0,1,1.182-1.428,7.181,7.181,0,0,1,1.469-1.066,6.679,6.679,0,0,1,1.684-.647,6.778,6.778,0,0,1,1.829-.171,6.755,6.755,0,0,1,1.908.364,6.885,6.885,0,0,1,1.695.84,7.1,7.1,0,0,1,1.352,1.2,6.7,6.7,0,0,1,.979,1.486,6.79,6.79,0,0,1,.558,1.689,7.29,7.29,0,0,1,.114,1.81,7.031,7.031,0,0,1-.367,1.849,7.608,7.608,0,0,1-.816,1.691,7.541,7.541,0,0,1-1.178,1.418,7.421,7.421,0,0,1-1.466,1.073,6.878,6.878,0,0,1-1.674.667,6.593,6.593,0,0,1-1.8.2,6.322,6.322,0,0,1-1.858-.341,8.157,8.157,0,0,1-2.58-1.394,6.277,6.277,0,0,1-1.661-2.046,6.3,6.3,0,0,1-.647-2.55A7.852,7.852,0,0,1-1232.548,11.8Zm4.686,1.289a3.083,3.083,0,0,0-.163.908,2.5,2.5,0,0,0,.125.873,2.034,2.034,0,0,0,.437.737,1.823,1.823,0,0,0,.775.488,2.182,2.182,0,0,0,.929.119,2.114,2.114,0,0,0,.82-.259,2.238,2.238,0,0,0,.661-.572,2.706,2.706,0,0,0,.437-.815,3.314,3.314,0,0,0,.171-.912,2.727,2.727,0,0,0-.106-.913,2.091,2.091,0,0,0-.423-.778,1.741,1.741,0,0,0-.78-.507,2.061,2.061,0,0,0-.94-.1,2.088,2.088,0,0,0-.833.295,2.52,2.52,0,0,0-.668.61A2.871,2.871,0,0,0-1227.862,13.092Z" transform="translate(1390.422 444.196)" fill="#1891c8"/><path d="M-1280.669-2.909l2.3-4.016a3.887,3.887,0,0,0,.514.372,5.861,5.861,0,0,0,.551.292,5.5,5.5,0,0,0,1.425.447,3.739,3.739,0,0,0,1.384-.02,2.974,2.974,0,0,0,1.213-.562,3.113,3.113,0,0,0,.908-1.187,2.873,2.873,0,0,0,.286-1.042,1.98,1.98,0,0,0-.147-.9,2.194,2.194,0,0,0-.542-.752,3.427,3.427,0,0,0-.892-.583,4.355,4.355,0,0,0-.787-.276,6.7,6.7,0,0,0-.867-.156,7.361,7.361,0,0,0-.882-.049,7.712,7.712,0,0,0-.83.048l2.325-4.584a7.08,7.08,0,0,1,1,.035q.517.054,1.041.159a9.558,9.558,0,0,1,1.022.264,7.875,7.875,0,0,1,.924.358,6.742,6.742,0,0,1,2.317,1.716,6.648,6.648,0,0,1,1.315,2.354,7.2,7.2,0,0,1,.3,2.7,7.867,7.867,0,0,1-.733,2.769,10.68,10.68,0,0,1-1.872,2.817,7.735,7.735,0,0,1-2.493,1.811,6.91,6.91,0,0,1-2.976.593,8.151,8.151,0,0,1-3.311-.824,9.991,9.991,0,0,1-1.336-.754A5.563,5.563,0,0,1-1280.669-2.909Z" transform="translate(1414.382 455.57)" fill="#1891c8"/><path d="M-1315.389-20.348l8.144-12.482,4.108,2.111-7.072,13.029Z" transform="translate(1431.834 464.089)" fill="#1891c8"/><path d="M-1349.033-61.92l4.811,2.592-.908,2.389,2.024,1.453,1.884-1.688,4.209,3.694-12.021,9.289-5.114-3.294Zm2.274,7.927-1.543,3.573,2.875-2.618Z" transform="translate(1451.316 478.711)" fill="#1891c8"/><path d="M-1386.748-85.563l3.566-3.322,7.357,5.573-10.626,11.433-4.248-3.774,7.268-6.962Z" transform="translate(1469.69 492.265)" fill="#1891c8"/><path d="M-1428.216-112.351l3.653-2.841a3.93,3.93,0,0,0,.335.539,5.76,5.76,0,0,0,.4.48,5.471,5.471,0,0,0,1.15.954,3.733,3.733,0,0,0,1.287.506,2.975,2.975,0,0,0,1.336-.059,3.113,3.113,0,0,0,1.29-.754,2.88,2.88,0,0,0,.66-.855,1.976,1.976,0,0,0,.2-.889,2.188,2.188,0,0,0-.216-.9,3.41,3.41,0,0,0-.6-.878,4.38,4.38,0,0,0-.624-.555,6.745,6.745,0,0,0-.744-.474,7.352,7.352,0,0,0-.8-.379,7.607,7.607,0,0,0-.786-.271l3.89-3.358a6.955,6.955,0,0,1,.908.41q.459.246.9.542a9.411,9.411,0,0,1,.845.633,7.943,7.943,0,0,1,.72.681,6.74,6.74,0,0,1,1.492,2.468,6.642,6.642,0,0,1,.324,2.676,7.206,7.206,0,0,1-.745,2.616,7.849,7.849,0,0,1-1.729,2.283,10.669,10.669,0,0,1-2.8,1.9,7.735,7.735,0,0,1-2.994.729,6.909,6.909,0,0,1-2.978-.58,8.156,8.156,0,0,1-2.751-2.018,9.957,9.957,0,0,1-.95-1.205A5.539,5.539,0,0,1-1428.216-112.351Z" transform="translate(1488.548 508.954)" fill="#1891c8"/><path d="M-1456.548-155.489a7.441,7.441,0,0,1,1.328-.806,4.646,4.646,0,0,1,1.3-.388,4.549,4.549,0,0,1,1.348.017,7.316,7.316,0,0,1,1.478.411l2.161-4.854,3.709,3.369-2.727,4.131.844,1.06,3.763-2.558,2.807,3.768q-2.031,1.444-4.04,2.881t-4.047,2.872l-2.024,1.454q-1,.721-2.05,1.418a14.207,14.207,0,0,1-1.278-.929,14.258,14.258,0,0,1-1.123-1.023q-.53-.538-1.021-1.133t-.974-1.243a8.453,8.453,0,0,1-1.164-2.138,6.251,6.251,0,0,1-.4-2.269,5.178,5.178,0,0,1,.517-2.177A5.071,5.071,0,0,1-1456.548-155.489Zm3.206,3.717a2.7,2.7,0,0,0-.6.6,1.874,1.874,0,0,0-.308.693,1.7,1.7,0,0,0,.015.752,2.144,2.144,0,0,0,.385.782,3.28,3.28,0,0,0,.276.326,3.065,3.065,0,0,0,.307.275l3.365-2.289-.157-.21a3.981,3.981,0,0,0-.668-.7,2.852,2.852,0,0,0-.82-.479,2.059,2.059,0,0,0-.9-.123A1.735,1.735,0,0,0-1453.342-151.772Z" transform="translate(1503.851 528.568)" fill="#1891c8"/><path d="M-1482.294-196.9a13.919,13.919,0,0,1,1.706-.851q1.05,1.55,2.217,3.007t2.329,2.915a2.717,2.717,0,0,0,.632-1.4,2.293,2.293,0,0,0-.329-1.487,3.2,3.2,0,0,0-.626-.742,7.959,7.959,0,0,0-.877-.682q-.472-.319-.955-.579t-.852-.437l4.543-2.062a4.838,4.838,0,0,1,.948.513,6.355,6.355,0,0,1,.844.7,7.865,7.865,0,0,1,.727.828,8.945,8.945,0,0,1,.6.89,6.3,6.3,0,0,1,.748,1.855,5.8,5.8,0,0,1,.111,1.817,6.1,6.1,0,0,1-.434,1.732,7.285,7.285,0,0,1-.9,1.579,9.051,9.051,0,0,1-1.278,1.385,9.991,9.991,0,0,1-1.564,1.135,11.294,11.294,0,0,1-1.846.87,10.133,10.133,0,0,1-1.971.506,8.284,8.284,0,0,1-1.984.064,6.792,6.792,0,0,1-1.889-.442,5.987,5.987,0,0,1-1.688-1.017,6.436,6.436,0,0,1-1.375-1.67,5.586,5.586,0,0,1-.669-1.667,4.935,4.935,0,0,1-.085-1.611,5.113,5.113,0,0,1,.421-1.515,6.555,6.555,0,0,1,.851-1.388,8.628,8.628,0,0,1,1.2-1.222A10.525,10.525,0,0,1-1482.294-196.9Zm1.725,4.056a3.1,3.1,0,0,0-.508.374,1.989,1.989,0,0,0-.4.48,1.3,1.3,0,0,0-.176.553,1.02,1.02,0,0,0,.159.6,1.3,1.3,0,0,0,.593.545,2.273,2.273,0,0,0,.8.2,3.567,3.567,0,0,0,.863-.052,5.843,5.843,0,0,0,.776-.189l-1.9-2.634Z" transform="translate(1517.714 547.726)" fill="#1891c8"/><path d="M-1517.722-252.173l14.518-3.48,2.58,5.647-6.274,4.16,6.809-1.487,2.661,5.613-11.881,7.937-2.589-4.786,7.494-4.424-7.9,1.816-1.689-3.913,6.749-4.77-8.775,2.835Z" transform="translate(1533.539 576.092)" fill="#1891c8"/><path d="M-1513.365-283.642l-3.119,1.009-2.4-6.648,3.557-1.144Z" transform="translate(1534.121 593.571)" fill="#1891c8"/></g></g></svg>