<svg xmlns="http://www.w3.org/2000/svg" width="93.29" height="79" viewBox="0 0 93.29 79"><g transform="matrix(0.966, -0.259, 0.259, 0.966, 78.539, -116.937)"><path d="M-104.747,123.106l58.725-5.384a8.943,8.943,0,0,1,9.71,8.1l2.078,23.042a8.941,8.941,0,0,1-8.1,9.71l-31.2,2.9c.177,1.963.485,5.382.664,7.364.262,2.9-1.181,5.264-5.868,2.076-3.32-2.257-9.392-5.893-12.661-7.828l-9.659.87a8.942,8.942,0,0,1-9.71-8.1l-2.078-23.043A8.942,8.942,0,0,1-104.747,123.106Z" transform="translate(0 0.16)" fill="#f7cb48" opacity="0.49" style="mix-blend-mode:multiply;isolation:isolate"/><path d="M-100.407,118.523l58.725-5.384a8.944,8.944,0,0,1,9.71,8.1l2.078,23.043a8.942,8.942,0,0,1-8.1,9.709l-31.2,2.9c.177,1.963.485,5.382.663,7.364.262,2.9-1.18,5.264-5.868,2.076-3.319-2.257-9.392-5.893-12.661-7.828l-9.659.87a8.942,8.942,0,0,1-9.71-8.1l-2.078-23.043A8.943,8.943,0,0,1-100.407,118.523Z" transform="translate(0.151 0)" fill="#fff"/><path d="M-81.4,141.106a9.163,9.163,0,0,0,.694-4.374,9.205,9.205,0,0,0-9.961-8.382,9.2,9.2,0,0,0-8.382,9.961,9.2,9.2,0,0,0,9.961,8.382,9.145,9.145,0,0,0,4.362-1.546c1.631.476,4.435,1.212,4.81.757C-79.633,145.56-80.692,142.826-81.4,141.106Z" transform="translate(0.482 0.531)" fill="#ffc700"/><g transform="translate(-74.584 129.756)"><path d="M-68.574,140.5l-6.7.466-.1-1.409,2.235-2.6q.994-1.167,1.291-1.614a3.346,3.346,0,0,0,.417-.814,2.006,2.006,0,0,0,.093-.758,1.09,1.09,0,0,0-.378-.836,1.237,1.237,0,0,0-.868-.224,2.453,2.453,0,0,0-1.064.331,5.642,5.642,0,0,0-1.043.8l-1.191-1.227a7.124,7.124,0,0,1,1.114-.934,4.249,4.249,0,0,1,.988-.453,5.156,5.156,0,0,1,1.222-.22,3.666,3.666,0,0,1,1.609.217,2.539,2.539,0,0,1,1.132.843,2.445,2.445,0,0,1,.474,1.324,3.318,3.318,0,0,1-.147,1.257,4.8,4.8,0,0,1-.638,1.24,17.715,17.715,0,0,1-1.6,1.857L-72.873,139l.007.091,4.174-.29Z" transform="translate(75.876 -129.131)" fill="#ffc700"/><path d="M-65.515,138.595a20.389,20.389,0,0,1-.937,3.22l-1.442.1q.3-1.773.434-3.337l1.835-.127Z" transform="translate(76.155 -128.871)" fill="#ffc700"/><path d="M-58.3,132.315a2.26,2.26,0,0,1-.439,1.564,2.826,2.826,0,0,1-1.466.972l0,.039a3.054,3.054,0,0,1,1.8.583,1.979,1.979,0,0,1,.7,1.469,2.57,2.57,0,0,1-.853,2.223,4.638,4.638,0,0,1-2.811.969,6.958,6.958,0,0,1-2.8-.326l-.12-1.723a6.246,6.246,0,0,0,1.256.374,5.153,5.153,0,0,0,1.337.085,2.578,2.578,0,0,0,1.458-.444,1.251,1.251,0,0,0,.4-1.127.99.99,0,0,0-.616-.919,4.083,4.083,0,0,0-1.776-.159l-.728.051-.108-1.553.74-.052a3.477,3.477,0,0,0,1.609-.4,1.057,1.057,0,0,0,.444-1.036q-.075-1.088-1.437-.994a3.094,3.094,0,0,0-.95.225,4.658,4.658,0,0,0-1.047.619l-1.034-1.331a5.218,5.218,0,0,1,3.061-1.161,4.061,4.061,0,0,1,2.392.44A1.941,1.941,0,0,1-58.3,132.315Z" transform="translate(76.265 -129.158)" fill="#ffc700"/><path d="M-50.4,134.426a6.7,6.7,0,0,1-.564,3.773,2.861,2.861,0,0,1-2.45,1.382A2.829,2.829,0,0,1-56,138.509a6.6,6.6,0,0,1-1.1-3.617,6.754,6.754,0,0,1,.559-3.8,2.845,2.845,0,0,1,2.439-1.377A2.836,2.836,0,0,1-51.5,130.8,6.61,6.61,0,0,1-50.4,134.426Zm-4.686.326a7.453,7.453,0,0,0,.481,2.5,1.056,1.056,0,0,0,1.078.692,1.068,1.068,0,0,0,.969-.844,7.269,7.269,0,0,0,.139-2.538,7.262,7.262,0,0,0-.493-2.512,1.072,1.072,0,0,0-1.072-.7,1.061,1.061,0,0,0-.97.84A7.458,7.458,0,0,0-55.084,134.752Z" transform="translate(76.53 -129.176)" fill="#ffc700"/><path d="M-42.995,133.912a6.7,6.7,0,0,1-.565,3.773,2.863,2.863,0,0,1-2.449,1.382,2.827,2.827,0,0,1-2.587-1.072,6.6,6.6,0,0,1-1.1-3.617,6.763,6.763,0,0,1,.559-3.8,2.85,2.85,0,0,1,2.44-1.377,2.833,2.833,0,0,1,2.593,1.084A6.6,6.6,0,0,1-42.995,133.912Zm-4.686.325a7.46,7.46,0,0,0,.48,2.506,1.058,1.058,0,0,0,1.078.692,1.068,1.068,0,0,0,.969-.844,7.258,7.258,0,0,0,.141-2.538,7.252,7.252,0,0,0-.495-2.512,1.068,1.068,0,0,0-1.072-.7,1.061,1.061,0,0,0-.97.84A7.433,7.433,0,0,0-47.681,134.237Z" transform="translate(76.789 -129.194)" fill="#ffc700"/></g></g></svg>