<svg xmlns="http://www.w3.org/2000/svg" width="70.165" height="71.57" viewBox="0 0 70.165 71.57"><g transform="translate(-253.976 -228.959) rotate(21)"><path d="M381.873,115.533H347.6a9.677,9.677,0,0,0-9.677,9.677v25.039a9.677,9.677,0,0,0,9.677,9.677h4.37v8c0,3.149,1.783,5.558,6.526,1.667,3.358-2.755,9.55-7.265,12.886-9.668h10.495a9.677,9.677,0,0,0,9.677-9.677V125.21A9.677,9.677,0,0,0,381.873,115.533Z" transform="translate(0 0)" fill="#fff"/><path d="M372.352,127.839c-4.387-4.747-10.382,3.6-10.382,3.6s-5.995-8.348-10.382-3.6c-7.19,7.78,7.246,18.872,10.382,18.872S379.543,135.62,372.352,127.839Z" transform="translate(2.764 2.566)" fill="#1990c6"/></g></svg>