<svg xmlns="http://www.w3.org/2000/svg" width="20.629" height="20.624" viewBox="0 0 20.629 20.624"><path d="M10.311,7.262A5.288,5.288,0,1,0,15.6,12.55,5.279,5.279,0,0,0,10.311,7.262Zm0,8.726a3.438,3.438,0,1,1,3.438-3.438A3.444,3.444,0,0,1,10.311,15.987Zm6.737-8.942a1.233,1.233,0,1,1-1.233-1.233A1.23,1.23,0,0,1,17.049,7.046Zm3.5,1.252a6.1,6.1,0,0,0-1.666-4.321A6.144,6.144,0,0,0,14.564,2.31c-1.7-.1-6.806-.1-8.509,0A6.135,6.135,0,0,0,1.733,3.972,6.124,6.124,0,0,0,.067,8.293c-.1,1.7-.1,6.806,0,8.509a6.1,6.1,0,0,0,1.666,4.321,6.151,6.151,0,0,0,4.321,1.666c1.7.1,6.806.1,8.509,0a6.1,6.1,0,0,0,4.321-1.666A6.144,6.144,0,0,0,20.551,16.8c.1-1.7.1-6.8,0-8.5Zm-2.2,10.332a3.48,3.48,0,0,1-1.96,1.96c-1.358.538-4.579.414-6.079.414s-4.726.12-6.079-.414a3.48,3.48,0,0,1-1.96-1.96c-.538-1.358-.414-4.579-.414-6.079s-.12-4.726.414-6.079a3.48,3.48,0,0,1,1.96-1.96C5.59,3.972,8.811,4.1,10.311,4.1s4.726-.12,6.079.414a3.48,3.48,0,0,1,1.96,1.96c.538,1.358.414,4.579.414,6.079S18.89,17.276,18.351,18.629Z" transform="translate(0.005 -2.238)" fill="#fff"/></svg>