<svg xmlns="http://www.w3.org/2000/svg" width="37.425" height="37.736" viewBox="0 0 37.425 37.736"><g transform="translate(5.966 484.988) rotate(-140)"><path d="M298.254,377.661l-14.62,1.544a4.782,4.782,0,0,1-5.234-4.282l-1.232-12.309a4.782,4.782,0,0,1,4.282-5.234l2.148-.215c-.105-1.048-.288-2.874-.394-3.934-.154-1.548.6-2.82,3.127-1.141,1.786,1.19,5.052,3.1,6.811,4.12l2.928-.374a4.782,4.782,0,0,1,5.234,4.281l1.232,12.31A4.781,4.781,0,0,1,298.254,377.661Z" transform="translate(0 0)" fill="#fff"/><path d="M8.186,3.174,1.85.129A1.29,1.29,0,0,0,0,1.39L.535,8.4a1.29,1.29,0,0,0,2.014.968L8.354,5.4A1.29,1.29,0,0,0,8.186,3.174Z" transform="matrix(0.545, -0.839, 0.839, 0.545, 284.45, 368.126)" fill="#ffc700"/></g></svg>