<svg xmlns="http://www.w3.org/2000/svg" width="165.313" height="165.434" viewBox="0 0 165.313 165.434"><g transform="translate(-0.731 -1.257)"><g transform="translate(-317 -67)"><g transform="translate(317.56 67.56)"><g transform="translate(0.17 0.404)"><path d="M77.237,163.261c.962.06,1.854-.366,1.912-1.29.069-1.081-1.236-1.464-2.3-1.912-1.942-.807-4.268-1.876-4.084-4.822.189-3.045,3.137-4.169,5.581-4.017a7.25,7.25,0,0,1,5.225,2.68l-2.021,1.745c-1.074-1.174-1.914-1.89-3.376-1.981-1.121-.07-2.259.4-2.336,1.645-.075,1.2,1.178,1.743,2.568,2.352,1.782.8,3.776,1.725,3.607,4.41-.166,2.666-2.51,3.787-4.833,3.643a7.33,7.33,0,0,1-4.546-1.954l1.772-1.941a4.751,4.751,0,0,0,2.826,1.442" fill="#c4c1c1" fill-rule="evenodd"/><path d="M58.043,152.363l-3.132-1.193-.161,4.989.018.005Zm-2.963-6.436L55,148.689l4.673,1.779,1.81-2.1,2.983,1.138-10.37,11.089-2.177-.828.069-15.016Z" fill="#c4c1c1" fill-rule="evenodd"/><path d="M42.172,138.408l-3.584,4.668-1.424,9.21-2.836-2.176,1.154-5.495-.034-.025-5.183,2.4-2.66-2.043,8.753-3.684,3.534-4.6Z" fill="#c4c1c1" fill-rule="evenodd"/><path d="M18.76,108.223l-5.5,2.458,2.434,5.444,5.5-2.458,1.171,2.62L9.535,122.024,8.362,119.4l5.115-2.289-2.433-5.442L5.929,113.96l-1.171-2.624L17.589,105.6Z" fill="#c4c1c1" fill-rule="evenodd"/><path d="M14.987,95.162,1.031,96.771,0,87.817l2.411-.278.7,6.1,3.15-.363-.7-6.1L7.976,86.9l.7,6.1,3.569-.412-.7-6.1,2.414-.278Z" fill="#c4c1c1" fill-rule="evenodd"/><path d="M14.327,75.819.441,73.639.888,70.8l11.484,1.8.893-5.692,2.4.376Z" fill="#c4c1c1" fill-rule="evenodd"/><path d="M18.523,58.322,5.692,52.585l1.171-2.62,10.614,4.745,2.351-5.262,2.219.992Z" fill="#c4c1c1" fill-rule="evenodd"/><path d="M22.147,30.066c-1.638,1.874-1.258,4.609.751,6.369s4.773,1.772,6.413-.1c1.626-1.857,1.245-4.594-.766-6.353s-4.77-1.774-6.4.085m9.053,7.92a7.27,7.27,0,1,1-.631-10.318A7.251,7.251,0,0,1,31.2,37.986" fill="#c4c1c1" fill-rule="evenodd"/><path d="M54.2,11.134a2.871,2.871,0,1,1-1.611,3.728A2.866,2.866,0,0,1,54.2,11.134" fill="#c4c1c1" fill-rule="evenodd"/><path d="M88.395,2.759c-.962-.064-1.855.36-1.917,1.282-.07,1.082,1.233,1.471,2.29,1.922,1.937.813,4.261,1.894,4.066,4.84-.2,3.045-3.152,4.158-5.6,4a7.261,7.261,0,0,1-5.217-2.7l2.028-1.737c1.069,1.178,1.907,1.9,3.371,1.993,1.123.075,2.26-.393,2.341-1.635.08-1.2-1.171-1.748-2.56-2.364-1.777-.8-3.769-1.738-3.59-4.425C83.784,1.265,86.131.153,88.457.307A7.316,7.316,0,0,1,93,2.279L91.217,4.213a4.755,4.755,0,0,0-2.822-1.454" fill="#c4c1c1" fill-rule="evenodd"/><path d="M107.511,13.735l3.129,1.206.182-4.989-.02-.007Zm2.938,6.448.1-2.761-4.666-1.8-1.819,2.1-2.979-1.149L111.5,5.522l2.174.838-.129,15.016Z" fill="#c4c1c1" fill-rule="evenodd"/><path d="M123.366,27.772l3.6-4.653,1.457-9.2,2.828,2.185-1.173,5.488.03.024,5.191-2.381,2.652,2.051-8.762,3.654-3.55,4.589Z" fill="#c4c1c1" fill-rule="evenodd"/><path d="M146.635,58.078l5.515-2.428-2.4-5.461-5.514,2.428-1.158-2.627,12.868-5.667,1.158,2.63-5.13,2.257,2.4,5.459,5.128-2.259,1.158,2.63L147.791,60.7Z" fill="#c4c1c1" fill-rule="evenodd"/><path d="M150.354,71.162l13.975-1.538.984,8.964-2.414.266-.671-6.11-3.156.348.671,6.11-2.414.264-.671-6.11-3.575.395.672,6.108-2.416.264Z" fill="#c4c1c1" fill-rule="evenodd"/><path d="M150.931,90.478,164.8,92.711l-.455,2.833L152.87,93.7l-.915,5.685-2.4-.385Z" fill="#c4c1c1" fill-rule="evenodd"/><path d="M146.652,107.976l12.812,5.791-1.183,2.616-10.6-4.79-2.374,5.255-2.215-1Z" fill="#c4c1c1" fill-rule="evenodd"/><path d="M142.889,136.206c1.648-1.864,1.283-4.6-.718-6.371s-4.76-1.8-6.411.065c-1.635,1.851-1.268,4.588.733,6.356s4.758,1.8,6.4-.05m-9.008-7.967a7.268,7.268,0,1,1,.576,10.318,7.253,7.253,0,0,1-.576-10.318" fill="#c4c1c1" fill-rule="evenodd"/><path d="M110.805,154.974a2.87,2.87,0,1,1,1.626-3.721,2.864,2.864,0,0,1-1.626,3.721" fill="#c4c1c1" fill-rule="evenodd"/></g></g></g></g></svg>