<?xml version="1.0" encoding="utf-8"?>
<!-- Generator: Adobe Illustrator 16.0.0, SVG Export Plug-In . SVG Version: 6.00 Build 0)  -->
<!DOCTYPE svg PUBLIC "-//W3C//DTD SVG 1.1//EN" "http://www.w3.org/Graphics/SVG/1.1/DTD/svg11.dtd">
<svg version="1.1" id="Layer_1" xmlns="http://www.w3.org/2000/svg" xmlns:xlink="http://www.w3.org/1999/xlink" x="0px" y="0px"
	 width="450px" height="450px" viewBox="0 0 450 450" enable-background="new 0 0 450 450" xml:space="preserve">
<g>
	<path fill="#8EB2DE" d="M304.59,435.678c-3.339,4.771-17.354,8.64-31.299,8.64c-13.946,0-22.545-3.868-19.205-8.64
		c3.34-4.772,17.353-8.64,31.3-8.64C299.332,427.038,307.93,430.905,304.59,435.678z"/>
	<g>
		<g>
			<g>
				<path fill="#92B2DE" d="M60.902,347.996c0,0-71.815-44.087-59.477-90.064c12.338-45.98,53.46-6.686,46.15-77.963
					C40.265,108.69-6.445,28.022,54.109,7.292C97.52-7.571,152.562,110.667,214.508,114.318
					c50.879,2.999,106.982-102.705,179.995-58.535c79.283,47.962-24.477,223.172-24.477,223.172l-123.878,39.913"/>
				<path fill="#7EA5D7" d="M109.005,347.996c0,0-47.022-28.867-38.943-58.971c8.079-30.107,35.004-4.379,30.217-51.049
					c-4.786-46.67-35.371-99.491,4.279-113.065c28.425-9.73,64.694,65.146,105.024,70.078c57.829,7.074,86.23-82.786,126.917-44.492
					c40.688,38.294-25.087,152.29-25.087,152.29L230.3,328.925"/>
				<path fill="#DBF1FA" d="M384.745,204.204L384.745,204.204c-3.862,0-7.173,2.445-8.482,5.862v-6.171
					c0-5.997-4.906-10.902-10.902-10.902l0,0c-5.688,0-10.389,4.419-10.855,9.992c-1.625-6.5-7.517-11.36-14.502-11.36l0,0
					c-8.23,0-14.964,6.734-14.964,14.963v3.488c-1.307-3.422-4.619-5.873-8.486-5.873l0,0c-4.998,0-9.088,4.089-9.088,9.088v10.366
					h17.574h0.603h28.817h0.506h20.692h0.605h17.57v-10.366C393.833,208.293,389.743,204.204,384.745,204.204z"/>
				<path fill="#DBF1FA" d="M118.858,158L118.858,158c-3.116,0-5.788,1.975-6.844,4.731v-4.979c0-4.84-3.959-8.797-8.797-8.797l0,0
					c-4.591,0-8.383,3.565-8.76,8.063c-1.313-5.246-6.066-9.166-11.703-9.166l0,0c-6.642,0-12.074,5.434-12.074,12.074v13.774
					h23.739h0.409h16.697h0.489h14.178v-8.366C126.191,161.3,122.892,158,118.858,158z"/>
				<g>
					<path fill="#8EB2DE" d="M84.3,360.857c-6.728,3.952-6.73,10.425-0.005,14.381l65.349,38.446
						c6.724,3.956,17.734,3.963,26.468-1.126l170.325-99.984c4.724-2.81,4.724-9.275-2.004-13.228l-65.475-38.451
						c-6.728-3.952-17.738-3.952-24.467,0L84.3,360.857z"/>
					<g>
						<g>
							<g>
								<g>
									<g>
										<g>
											
												<linearGradient id="SVGID_1_" gradientUnits="userSpaceOnUse" x1="1102.2881" y1="340.4414" x2="1411.7451" y2="340.4414" gradientTransform="matrix(1 0 0 1 -1041.7188 0)">
												<stop  offset="0" style="stop-color:#9B3E97"/>
												<stop  offset="0.1188" style="stop-color:#9B4298"/>
												<stop  offset="0.2499" style="stop-color:#994D9A"/>
												<stop  offset="0.387" style="stop-color:#955D9E"/>
												<stop  offset="0.5282" style="stop-color:#8F6FA4"/>
												<stop  offset="0.6725" style="stop-color:#8685AB"/>
												<stop  offset="0.8195" style="stop-color:#789FB3"/>
												<stop  offset="0.9661" style="stop-color:#61BBBA"/>
												<stop  offset="1" style="stop-color:#58C3BC"/>
											</linearGradient>
											<path opacity="0.3" fill="url(#SVGID_1_)" d="M369.982,275.304c0.303,2.831-1.045,5.501-3.76,7.118L171.375,396.801
												c-0.301,0.175-0.609,0.326-0.914,0.492l-1.382,0.811c-7.698,4.518-20.291,4.511-27.985-0.017l-74.757-43.979
												c-0.461-0.272-0.892-0.555-1.296-0.846c-0.169-0.121-0.317-0.249-0.477-0.373c-0.218-0.17-0.442-0.34-0.644-0.517
												c-0.194-0.171-0.365-0.345-0.542-0.52c-0.136-0.136-0.278-0.269-0.404-0.403c-0.194-0.21-0.366-0.424-0.536-0.641
												c-0.081-0.103-0.167-0.205-0.243-0.311c-0.18-0.244-0.338-0.493-0.488-0.745c-0.043-0.075-0.089-0.146-0.131-0.222
												c-0.155-0.279-0.289-0.559-0.407-0.841c-0.019-0.047-0.039-0.094-0.057-0.14c-0.122-0.306-0.222-0.615-0.301-0.926
												c-0.005-0.021-0.01-0.039-0.015-0.061c-0.082-0.33-0.14-0.661-0.173-0.994l0,0l-0.055-0.01v3.475
												c-0.002,2.982,1.92,5.965,5.768,8.229l74.757,43.981c7.694,4.527,20.287,4.532,27.985,0.012l194.85-114.377
												c3.936-2.312,6.098-5.289,6.098-8.926v-3.718L369.982,275.304z"/>
											<path fill="#C2E1F6" d="M369.982,275.304c0.303,2.831-1.045,5.501-3.76,7.118L171.375,396.801
												c-0.301,0.175-0.609,0.326-0.914,0.492l-0.363,0.212c-7.698,4.518-21.31,5.109-29.003,0.582l-74.757-43.979
												c-0.461-0.272-0.892-0.555-1.296-0.846c-0.169-0.121-0.317-0.249-0.477-0.373c-0.218-0.17-0.442-0.34-0.644-0.517
												c-0.194-0.171-0.365-0.345-0.542-0.52c-0.136-0.136-0.278-0.269-0.404-0.403c-0.194-0.21-0.366-0.424-0.536-0.641
												c-0.081-0.103-0.167-0.205-0.243-0.311c-0.18-0.244-0.338-0.493-0.488-0.745c-0.043-0.075-0.089-0.146-0.131-0.222
												c-0.155-0.279-0.289-0.559-0.407-0.841c-0.019-0.047-0.039-0.094-0.057-0.14c-0.122-0.306-0.222-0.615-0.301-0.926
												c-0.005-0.021-0.01-0.039-0.015-0.061c-0.082-0.33-0.14-0.661-0.173-0.994l0,0l-0.055-0.01v3.475
												c-0.002,2.982,1.92,5.965,5.768,8.229l74.757,43.981c7.694,4.527,20.287,4.532,27.985,0.012l194.85-114.377
												c3.936-2.312,6.098-5.289,6.098-8.926v-3.718L369.982,275.304z"/>
											<path fill="#DBF1FA" d="M66.343,337.655c-7.697,4.522-7.699,11.925-0.006,16.452l74.757,43.979
												c7.694,4.527,20.287,4.534,30.28-1.286l194.848-114.379c5.404-3.218,5.404-10.613-2.293-15.135l-74.9-43.988
												c-7.697-4.521-20.293-4.521-27.99,0.001L66.343,337.655z"/>
											<polygon fill="#FFFFFF" points="90.712,363.444 112.077,376.038 117.915,372.526 96.514,359.942 											"/>
											<polygon fill="#3972B9" points="66.501,338.336 166.91,397.547 359.931,284.381 259.352,225.209 											"/>
											<polygon fill="#273D8C" points="273.71,284.887 308.725,263.971 340.757,282.881 305.918,303.522 											"/>
											<path opacity="0.3" fill="#FFFFFF" d="M369.417,273.118c1.243,3.469-0.028,6.985-3.324,8.947L171.245,396.444
												c-9.993,5.82-22.586,5.813-30.28,1.286l-74.757-43.979c-2.775-1.633-4.534-3.644-5.306-5.755
												c0.697,2.241,2.503,4.385,5.435,6.111l74.757,43.979c7.694,4.527,20.287,4.534,30.28-1.286l194.848-114.379
												C369.631,280.393,370.883,276.701,369.417,273.118z"/>
										</g>
										<g>
											<g>
												<ellipse fill="#F1F9FB" cx="315.603" cy="249.59" rx="6.133" ry="3.05"/>
												<path fill="#C7E6F8" d="M310.027,249.542c0,1.425,2.497,2.582,5.574,2.582c3.081,0,5.575-1.157,5.575-2.582
													c0-1.423-2.494-2.581-5.575-2.581C312.524,246.961,310.027,248.119,310.027,249.542z"/>
												<path fill="#AACEED" d="M311.449,249.542c0,1.059,1.858,1.924,4.152,1.924c2.296,0,4.156-0.865,4.156-1.924
													c0-1.061-1.86-1.921-4.156-1.921C313.308,247.621,311.449,248.481,311.449,249.542z"/>
												<path fill="#9BBDE4" d="M312.335,249.542c0,0.834,1.462,1.514,3.267,1.514c1.808,0,3.272-0.68,3.272-1.514
													s-1.465-1.511-3.272-1.511C313.797,248.031,312.335,248.708,312.335,249.542z"/>
												<ellipse fill="#554FA1" cx="315.602" cy="249.542" rx="1.55" ry="0.718"/>
												<ellipse opacity="0.2" fill="#FFFFFF" cx="313.772" cy="248.566" rx="2.107" ry="0.976"/>
												<ellipse opacity="0.2" fill="#FFFFFF" cx="316.991" cy="249.542" rx="0.81" ry="0.375"/>
											</g>
										</g>
									</g>
								</g>
							</g>
						</g>
						<polygon fill="#9BBDE4" points="223.683,254.482 258.696,233.566 290.729,252.476 255.89,273.118 						"/>
						<polygon fill="#273D8C" points="142.792,313.02 216.349,269.08 283.639,308.805 210.453,352.167 						"/>
						<g>
							<g>
								<g>
									<path fill="#FDD9C5" d="M270.432,230.659l21.392,16.735l10.318-39.892l10.751-2.92c0,0,5.48,44.537-6.929,68.062
										c0,0-27.916-2.942-51.65-13.801"/>
									<path fill="#FDD9C5" d="M270.432,230.659l21.392,16.735l10.318-39.892l10.751-2.92c0,0,5.48,44.537-6.929,68.062
										c0,0-27.916-2.942-51.65-13.801"/>
									<path fill="#FDD1B7" d="M257.709,252.905v7.421c4.045,1.702,8.162,3.19,12.205,4.481
										c7.119-15.907,3.195-31.505,3.195-31.505l-11.314,12.459L257.709,252.905z"/>
									<path fill="#4369B2" d="M227.126,210.41c0,0,20.049,2.141,45.271,17.334c0,0,5.153,15.177-12.238,36.227l-27.729-16.632"/>
									<path fill="#3859A8" d="M254.513,260.585c3.206-37.263-27.387-50.175-27.387-50.175l5.304,36.929L254.513,260.585z"/>
									<path fill="#FDD9C5" d="M302.142,207.502l-4.358-7.279c0,0,3.687-5.061,1.621-12.005c0,0,3.08-1.844,4.589,1.627
										l-0.035,8.202c0,0,4.442,5.521,5.167,10.7c0.725,5.178-2.832,7.498-2.832,7.498L302.142,207.502z"/>
									<path fill="#FFCE4D" d="M303.993,189.845l0.205,21.474c0,0,1.021,4.313,5.261,5.216l4.483-2.684
										c0,0,2.14-17.842-5.438-28.502l-2.181-3.641l-5.246,3.142L303.993,189.845z"/>
									<path fill="#FDD9C5" d="M314.128,206.28c0,0,6.371-0.851,5.972-6.348c0,0,3.655-4.841,0.484-11.425
										c-3.171-6.584-8.996-1.823-8.996-1.823l0.604,2.415l-0.942,3.773c0,0-1.434-0.99-0.134,2.192
										c-1.832,0.44-3.467,4.057-0.674,5.802C314.186,203.208,314.128,206.28,314.128,206.28z"/>
								</g>
								<g>
									<g>
										
											<ellipse transform="matrix(-0.858 0.5137 -0.5137 -0.858 653.0932 180.1536)" fill="#54A0D8" cx="301.641" cy="180.364" rx="10.532" ry="11.8"/>
										<path fill="#251F51" d="M308.773,154.008l-10.223,6.121c-4.99,2.988-4.677,12.689,0.698,21.668
											c5.377,8.979,13.78,13.834,18.77,10.846l10.224-6.12L308.773,154.008z"/>
										
											<ellipse transform="matrix(-0.858 0.5137 -0.5137 -0.858 679.2429 152.7369)" fill="#2D3695" cx="318.507" cy="170.266" rx="10.532" ry="18.95"/>
									</g>
									<path fill="#4373B9" d="M371.266,181.951l-17.247-32.948l-20.898-30.762l-22.539,38.786v0.001
										c-2.661,3.314-1.971,10.299,1.937,16.824c3.911,6.533,9.75,10.441,13.928,9.651L371.266,181.951z"/>
								</g>
								
									<ellipse transform="matrix(-0.858 0.5137 -0.5137 -0.858 741.8445 87.0654)" fill="#251F51" cx="358.886" cy="146.09" rx="24.004" ry="43.188"/>
								
									<ellipse transform="matrix(-0.858 0.5137 -0.5137 -0.858 744.3317 84.4598)" fill="#DBF1FA" cx="360.49" cy="145.129" rx="20.007" ry="35.997"/>
								<path fill="#54A0D8" d="M360.578,173.699c-6.175-3.801-12.371-10.137-17.255-18.292c-4.882-8.154-7.539-16.608-7.976-23.848
									l36.563-7.398l5.743,10.69l6.712,10.114L360.578,173.699z"/>
								
									<ellipse transform="matrix(-0.858 0.5137 -0.5137 -0.858 770.9456 56.5592)" fill="#FFFFFF" cx="377.654" cy="134.852" rx="6.763" ry="12.168"/>
							</g>
							<path fill="#54A0D8" d="M172.302,239.217c0.004-0.006,0.009-0.012,0.014-0.02c2.302-18.763,18.267-33.304,37.656-33.304
								c19.388,0,35.351,14.541,37.655,33.304c0.005,0.008,0.011,0.014,0.015,0.02c4.645,28.883,2.652,89.391,2.652,89.391
								c-21.814,13.505-39.84,23.56-39.84,23.56s-17.988-10.26-40.803-23.608C169.65,328.559,167.658,268.1,172.302,239.217z"/>
							<polyline fill="#467EC1" points="193.481,276.918 193.481,318.139 205.367,349.257 195.324,343.674 182.504,325.495 
								177.994,311.717 177.994,304.359 178.502,301.848 							"/>
							<path fill="#4C7EC0" d="M205.367,255.26v17.64c0,4.499,3.532,6.076,7.849,3.504l0,0c4.316-2.57,7.848-8.356,7.848-12.855
								v-17.271L205.367,255.26z"/>
							<polygon fill="#4369B2" points="205.367,263.517 221.063,254.534 221.063,246.277 205.367,255.26 							"/>
							<path fill="#FBC3AD" d="M200.862,192.415v18.535c0,0,0.917,3.877,6.671,9.935c5.194,5.47,11.546,7.25,11.546,7.25v-17.39
								v-6.234l-14.32-12.095H200.862z"/>
							<path fill="#251F51" d="M193.674,183.792c0,0,3.277,5.247,6.509,7.435l-0.278-7.435l-3.378-1.538"/>
							<path fill="#FDD9C5" d="M240.953,164.965c0,0,2.836,31.262-9.444,46.432c0,0-10.175,3.692-28.968-13.978
								c-1.131-1.063-1.897-2.499-2.111-4.037c-0.496-3.574-1.063-11.07,0.433-22.278l7.584-11.918h12.227L240.953,164.965z"/>
							
								<ellipse transform="matrix(0.866 0.5 -0.5 0.866 115.5214 -73.7242)" fill="#FDD9C5" cx="195.324" cy="178.691" rx="7.344" ry="5.31"/>
							<path fill="#251F51" d="M202.019,178.933c0.571,1.589,0.391,6.659,0.391,6.659s4.22-2.533,4.01-10.131l4.854-8.021
								c0,0,5.739,8.645,17.941,6.544l-2.954-2.533c0,0,13.085,5.698,23.64-4.011l-8.947-2.475c0,0,13.802-8.923,5.358-26.863
								l-7.387,5.276c0,0,3.377-8.443-4.011-14.564l-7.598,8.865c0,0-24.727-8.443-31.993,12.665l-3.468-4.644l1.268,6.121
								l-4.433,0.211l3.588,2.955c0,0-7.697,6.891-0.071,17.928C192.207,172.915,199.74,172.576,202.019,178.933z"/>
							<path fill="#FDD9C5" d="M164.007,269.08c0,0-2.887,24.747-2.231,43.534l7.874,15.944l25.674,15.115l-10.213-25.018
								c0,0,3.579-24.235,8.371-41.738L164.007,269.08z"/>
							<polygon fill="#FDD1B7" points="193.481,276.918 163.151,277.638 164.007,269.08 							"/>
							<path fill="#4369B2" d="M172.523,228.135c7.102-14.485,26.708-8.226,28.339,6.397c1.112,7.981,0.311,22.455-5.539,43.105
								l-33.645-7.462C161.679,270.176,163.501,246.54,172.523,228.135z"/>
							<path fill="#0E1025" d="M225.779,202.292c-4.539-0.899-7.487-5.309-6.588-9.846l16.435,3.258
								C234.727,200.242,230.318,203.192,225.779,202.292z"/>
							<path fill="#FFFFFF" d="M231.343,199.061l-11.529-1.449c-0.74-1.566-0.986-3.335-0.624-5.164l13.837,2.743L231.343,199.061z"
								/>
							<g>
								<path fill="#FCCBB5" d="M217.984,194.156c-0.128,0-0.256-0.03-0.377-0.092c-0.402-0.209-0.566-0.693-0.366-1.1
									c0.04-0.077,0.967-1.887,3.74-2.159c0.461-0.04,0.862,0.288,0.906,0.745c0.045,0.457-0.288,0.862-0.745,0.907
									c-1.816,0.178-2.396,1.214-2.419,1.257C218.571,193.993,218.283,194.156,217.984,194.156z"/>
							</g>
						</g>
					</g>
				</g>
				<g>
					<polygon fill="#FFFFFF" points="135.84,318.139 220.15,378.817 188.557,379.777 					"/>
					<polyline fill="#ADC7E8" points="135.84,318.139 172.774,411.259 176.449,379.216 162.866,355.604 					"/>
					<polygon fill="#FFFFFF" points="137.802,403.022 135.84,318.139 169.41,382.22 					"/>
					<polygon fill="#D0EEFC" points="188.557,379.777 172.774,411.259 169.41,382.22 135.84,318.139 					"/>
				</g>
				<g>
					<polygon fill="#FFCE4D" points="231.114,70.523 151.464,60.016 168.75,77.302 					"/>
					<polyline fill="#F26333" points="231.114,70.523 160.954,103.399 175.868,83.402 196.034,77.302 					"/>
					<polygon fill="#FFCE4D" points="185.019,117.296 231.114,70.523 178.241,88.825 					"/>
					<polygon fill="#F68A33" points="168.75,77.302 160.954,103.399 178.241,88.825 231.114,70.523 					"/>
				</g>
				<g>
					<polygon fill="#273D8C" points="84.2,261.279 62.981,221.724 60.78,235.204 					"/>
					<polyline fill="#262860" points="84.2,261.279 46.399,240.183 60.335,240.422 69.681,247.579 					"/>
					<polygon fill="#273D8C" points="47.946,255.63 84.2,261.279 58.649,243.269 					"/>
					<polygon fill="#33479D" points="60.78,235.204 46.399,240.183 58.649,243.269 84.2,261.279 					"/>
				</g>
				<path fill="#DBF1FA" d="M219.08,228.135c0,0-12.124-4.267-18.217-17.185v-6.367c0,0-6.328-0.342-7.188,4.986
					c-2.279,14.089,18.5,27.623,18.5,27.623l3.124-6.2L219.08,228.135z"/>
				<path fill="#DBF1FA" d="M219.08,228.135l4.603-2.925l5.548,4.292c0,0-0.946-7.072-10.27-15.34L219.08,228.135z"/>
			</g>
			<g>
				<g>
					<g>
						<path fill="#FDD6B8" d="M275.956,321.891l-2.479-2.885l-5.463,4.608c0,0-9.351,3.241-24.186-5.939l-0.009,0.017
							c-0.195-0.674-0.454-1.442-0.694-1.794c0,0-1.85-3.845-2.177-4.423c0,0-1.011,0.026-0.806,1.244
							c0.204,1.222,0.839,2.645,0.839,2.645s-1.543-1.022-2.225-1.996c-0.682-0.972-2.082-2.856-2.812-2.989s-0.62,0.631-0.62,0.631
							s2.154,2.892,2.61,3.517c0.4,0.547,0.065,0.575,0.065,0.575s-3.199-2.724-3.772-3.211c-0.574-0.487-1.061-0.352-1.305,0.289
							c0,0,1.697,1.463,2.66,2.453c0.336,0.345,1.688,1.308,1.276,1.664c0,0-2.984-2.048-3.446-2.454
							c-0.462-0.405-1.02-0.2-1.052,0.45l3.832,3.09c0,0,0.228,0.266,0.003,0.356c-0.2,0.079-2.359-0.718-2.568-0.862
							c-0.207-0.145-0.896-0.545-1.14,0.061c0,0-0.056,0.217,0.586,0.602c0.642,0.387,3.618,2.307,3.618,2.307
							s1.83,1.465,4.415,1.936c0.227,0.04,0.417,0.061,0.613,0.084l-0.022,0.042c0,0,11.553,10.598,25.143,10.479
							c6.376,0,12.752-7.387,12.752-7.387L275.956,321.891z"/>
						<path fill="#4369B2" d="M267.42,321.61l9.225,7.039c0,0,9.787-11.869,5.338-16.101S267.42,321.61,267.42,321.61z"/>
						<path fill="#54A0D8" d="M291.108,359.975h-20.582c0,0,0.975-18.861,4.768-42.514c0.404-2.521,2.084-7.186,7.794-6.602
							c5.178,0.531,8.222,4.724,8.222,14.7C291.31,341.451,291.108,359.975,291.108,359.975z"/>
						<path fill="#1F0F2A" d="M277.368,392.784l17.088,34.338l3.707-2.498c0,0,0.06-18.345-10.322-33.69v-20.928l-12.561,10.755"/>
						<path fill="#251F51" d="M270.526,359.975l-2.445,70.414h4.47c0,0,10.164-23.573,6.787-36.817c0,0,10.139-17.701,11.771-33.597
							H270.526z"/>
						<linearGradient id="SVGID_2_" gradientUnits="userSpaceOnUse" x1="258.6895" y1="361.4063" x2="288.9539" y2="361.4063">
							<stop  offset="0" style="stop-color:#29C5F4"/>
							<stop  offset="0.1121" style="stop-color:#2BBDEF"/>
							<stop  offset="0.2902" style="stop-color:#28AEE4"/>
							<stop  offset="0.5121" style="stop-color:#2497D4"/>
							<stop  offset="0.7665" style="stop-color:#2379BF"/>
							<stop  offset="1" style="stop-color:#205EAC"/>
						</linearGradient>
						<polyline opacity="0.29" fill="url(#SVGID_2_)" points="270.526,359.975 290.714,362.838 291.108,359.975 						"/>
						<g>
							<g>
								<path fill="#FDD6B8" d="M269.068,296.066c0,0-0.229,7.505,2.527,14.372c0,0,3.201,0.985,6.751-1.521l0.151,6.022l5.62-3.991
									l-0.185-7.029l-1.396,0.505l-0.13-2.206c0,0,1.735-1.172,1.288-3.388c-0.447-2.219-2.314-0.536-2.705-0.01l-0.069,1.61
									c0,0-1.327-2.766-0.121-4.369l-2.059-2.285C278.741,293.776,275.181,295.404,269.068,296.066z"/>
								<path fill="#212C5E" d="M284.718,291.227c0,0-0.724-3.67-4.773-3.867c0.92,2.726-0.648,5.333-1.446,8.092l1.477-0.457
									c0,0-0.606,2.496,0.946,5.437l0.07-1.61c0,0,0.836-1.325,1.981-0.822c1.144,0.503,0.842,2.915-0.565,4.22l0.13,2.947
									l1.396-0.506l0.053,1.244c0,0,1.352-1.433,1.138-2.973C285.124,302.931,290.569,297.852,284.718,291.227z"/>
								<path fill="#212C5E" d="M281.163,294.095c0,0-12.886,9.041-18.95-2.959l3.585,0.343c0,0,3.909-7.731,14.146-4.119
									l1.472,1.337L281.163,294.095z"/>
								<path fill="#212C5E" d="M264.817,286.812c0,0-1.197,3.164,0.98,4.667l3.532-1.505L264.817,286.812z"/>
							</g>
						</g>
						<polygon fill="#16224D" points="272.551,430.389 272.551,435.186 252.985,435.186 268.081,430.389 						"/>
						<polygon fill="#16224D" points="298.163,424.624 301.519,428.138 291.854,435.186 282.262,435.186 289.715,432.089 
							294.456,427.122 						"/>
					</g>
					<g>
						<path fill="#C7E0F5" d="M245.506,333.333l-3.26-2.589c-0.493-0.392-0.493-1.14-0.001-1.53l4.397-3.505
							c0.36-0.289,0.873-0.284,1.229,0.007l9.479,7.767c0.506,0.414,0.471,1.199-0.071,1.565l-3.448,2.342"/>
						<path fill="#22356D" d="M256.91,333.121l-8.835-7.237l-5.933,4.73c0.037,0.042,0.058,0.095,0.104,0.13l1.934,1.536
							l6.701,5.937L256.91,333.121z"/>
						<path fill="#FDD6B8" d="M253.078,339.13c-0.346-0.081-3.667,0.709-3.667,0.709l-3.196-4.141l-1.893-0.946v-2.367l1.184,0.948
							l3.194-0.119l-2.685-1.554l1.381-0.909l2.73,1.161l3.424,2.483l20.483-0.354l5.194-11.478l8.045,2.959
							c0,0-3.667,10.176-10.649,16.684C276.624,342.206,265.266,341.971,253.078,339.13z"/>
						<path fill="#4369B2" d="M275.59,326.728l10.746,4.38c0,0,6.34-14.018,0.938-16.937
							C281.872,311.251,275.59,326.728,275.59,326.728z"/>
					</g>
				</g>
			</g>
			<g>
				<g>
					<g>
						<path fill="#FDD6B8" d="M112.57,215.746l-0.482-3.771l7.08-0.975c0,0,8.667-4.779,11.774-21.944l0.017,0.003
							c-0.368-0.595-0.767-1.303-0.867-1.716c0,0-1.62-3.949-1.829-4.577c0,0,0.694-0.734,1.463,0.234
							c0.77,0.969,1.402,2.393,1.402,2.393s0.275-1.832,0.008-2.99c-0.268-1.158-0.73-3.458-0.34-4.089
							c0.39-0.631,0.884-0.038,0.884-0.038s0.707,3.535,0.865,4.291c0.138,0.665,0.384,0.432,0.384,0.432s0.118-4.199,0.14-4.95
							s0.447-1.023,1.086-0.777c0,0-0.048,2.241,0.043,3.62c0.032,0.48-0.157,2.128,0.383,2.062c0,0,0.475-3.588,0.483-4.202
							c0.007-0.615,0.534-0.893,1.039-0.481l-0.27,4.916c0,0,0.046,0.347,0.262,0.24c0.194-0.095,1.047-2.233,1.078-2.485
							c0.031-0.25,0.196-1.031,0.808-0.807c0,0,0.199,0.104,0.056,0.839c-0.144,0.735-0.708,4.232-0.708,4.232
							s-0.136,2.34-1.517,4.576c-0.121,0.194-0.234,0.35-0.348,0.511l0.047,0.012c0,0,0.141,15.676-9.042,25.693
							c-4.268,4.738-14.023,4.533-14.023,4.533L112.57,215.746z"/>
						<path fill="#4369B2" d="M112.968,210.196l3.41,11.092c0,0-14.522,5.071-16.952-0.567
							C96.996,215.081,112.968,210.196,112.968,210.196z"/>
						<path fill="#54A0D8" d="M90.291,263.26h20.582c0,0-0.974-18.862-4.767-42.514c-0.405-2.521-2.084-7.187-7.795-6.602
							c-5.177,0.531-8.222,4.724-8.222,14.7C90.088,244.735,90.291,263.26,90.291,263.26z"/>
						<path fill="#1F0F2A" d="M104.032,296.066l-17.089,34.338l-3.707-2.496c0,0-0.06-18.344,10.322-33.689v-20.928l12.561,10.755"
							/>
						<path fill="#251F51" d="M110.872,263.26l2.445,70.413h-4.469c0,0-10.164-23.572-6.788-36.816c0,0-10.139-17.701-11.77-33.597
							H110.872z"/>
						
							<linearGradient id="SVGID_3_" gradientUnits="userSpaceOnUse" x1="153.8691" y1="264.6914" x2="184.1329" y2="264.6914" gradientTransform="matrix(-1 0 0 1 276.5781 0)">
							<stop  offset="0" style="stop-color:#29C5F4"/>
							<stop  offset="0.1121" style="stop-color:#2BBDEF"/>
							<stop  offset="0.2902" style="stop-color:#28AEE4"/>
							<stop  offset="0.5121" style="stop-color:#2497D4"/>
							<stop  offset="0.7665" style="stop-color:#2379BF"/>
							<stop  offset="1" style="stop-color:#205EAC"/>
						</linearGradient>
						<polyline opacity="0.29" fill="url(#SVGID_3_)" points="110.872,263.26 90.685,266.122 90.291,263.26 						"/>
						<g>
							<g>
								<path fill="#FDD6B8" d="M112.331,199.35c0,0,0.229,7.507-2.528,14.374c0,0-3.2,0.985-6.75-1.521l-0.151,6.022l-5.621-3.99
									l0.185-7.03l1.397,0.504l0.129-2.206c0,0-1.735-1.172-1.288-3.39c0.447-2.217,2.314-0.535,2.705-0.007l0.069,1.609
									c0,0,1.328-2.766,0.123-4.368l2.058-2.286C102.657,197.062,106.217,198.69,112.331,199.35z"/>
								<path fill="#212C5E" d="M96.68,194.512c0,0,0.725-3.671,4.773-3.869c-0.918,2.725,0.649,5.335,1.448,8.094l-1.477-0.457
									c0,0,0.607,2.496-0.947,5.435l-0.069-1.609c0,0-0.837-1.327-1.981-0.823c-1.145,0.503-0.843,2.915,0.565,4.22l-0.129,2.946
									l-1.398-0.504l-0.052,1.243c0,0-1.352-1.432-1.138-2.973C96.275,206.215,90.829,201.134,96.68,194.512z"/>
								<path fill="#212C5E" d="M101.424,198.28l8.781,2.049l2.126-0.979c0,0,5.411-4.984,0.689-10.948
									c-3.313,3.23-8.896,0-11.567,2.241l-4.773,3.869L101.424,198.28z"/>
							</g>
						</g>
						<polygon fill="#16224D" points="108.848,333.673 108.848,338.471 128.414,338.471 113.317,333.673 						"/>
						<polygon fill="#16224D" points="83.235,327.908 79.881,331.42 89.545,338.471 99.137,338.471 91.684,335.374 86.942,330.404 
													"/>
					</g>
					<g>
						<path fill="#C7E0F5" d="M135.893,236.616l3.259-2.587c0.493-0.391,0.494-1.139,0.002-1.53l-4.398-3.506
							c-0.36-0.288-0.873-0.284-1.229,0.009l-9.479,7.766c-0.506,0.415-0.47,1.199,0.071,1.565l3.449,2.341"/>
						<path fill="#22356D" d="M124.489,236.406l8.833-7.236l5.935,4.729c-0.037,0.043-0.058,0.094-0.104,0.131l-1.934,1.535
							l-6.701,5.938L124.489,236.406z"/>
						<path fill="#FDD6B8" d="M128.32,242.414c0.346-0.08,3.668,0.71,3.668,0.71l3.195-4.141l1.893-0.947v-2.366l-1.183,0.946
							l-3.194-0.118l2.684-1.555l-1.38-0.909l-2.731,1.163l-3.425,2.483l-20.483-0.354l-5.193-11.478l-8.046,2.958
							c0,0,3.669,10.177,10.649,16.685C104.773,245.491,116.133,245.254,128.32,242.414z"/>
						<path fill="#4369B2" d="M105.809,230.012l-10.747,4.379c0,0-6.339-14.015-0.938-16.935
							C99.526,214.536,105.809,230.012,105.809,230.012z"/>
					</g>
				</g>
			</g>
			<g>
				<path fill="#EF4733" d="M135.199,141.014h-23.02c-4.701,0-8.511,3.81-8.511,8.51v17.921c0,4.701,3.81,8.511,8.511,8.511h7.101
					l4.409,4.408l4.408-4.408h7.102c4.701,0,8.511-3.81,8.511-8.511v-17.921C143.71,144.823,139.9,141.014,135.199,141.014z"/>
				<polygon fill="#FFFFFF" points="134.52,159.187 126.478,151.143 126.478,155.05 112.858,155.05 112.858,163.322 
					126.478,163.322 126.478,167.229 				"/>
			</g>
			<g>
				<path fill="#FFCE4D" d="M250.556,277.27h-17.094c-3.49,0-6.319,2.829-6.319,6.319v13.307c0,3.491,2.829,6.321,6.319,6.321h5.273
					l3.274,3.274l3.273-3.274h5.272c3.49,0,6.32-2.83,6.32-6.321v-13.307C256.876,280.099,254.046,277.27,250.556,277.27z"/>
			</g>
			<g>
				<circle fill="#FFFFFF" cx="234.023" cy="289.959" r="2.6"/>
				<circle fill="#FFFFFF" cx="242.009" cy="289.959" r="2.6"/>
				<circle fill="#FFFFFF" cx="249.995" cy="289.959" r="2.6"/>
			</g>
			<g>
				<path fill="#54A0D8" d="M361.292,245.016h-23.021c-4.701,0-8.511,3.81-8.511,8.511v17.922c0,4.698,3.81,8.511,8.511,8.511h7.102
					l4.409,4.408l4.408-4.408h7.102c4.7,0,8.511-3.813,8.511-8.511v-17.922C369.803,248.825,365.992,245.016,361.292,245.016z"/>
			</g>
			<path fill="#FFFFFF" d="M358.763,260.017c0-0.602-0.491-1.202-1.093-1.202h-1.703h-1.273h-3.226c0,0,1.118-1.221,0.387-4.124
				c-0.541-2.146-2.406-2.104-3.145-1.681c0,0,0.415,1.405-0.379,4.434c-0.868,3.314-3.376,3.873-3.727,3.937h-3.568v7.336h4.891
				v-0.321c0.049,0.032,0.104,0.066,0.146,0.097c0.342,0.237,0.753,0.354,1.17,0.354h5.972h1.347h1.63
				c0.602,0,1.26-0.492,1.26-1.094c0.045-0.479-0.205-0.865-0.434-1.014c0.483-0.112,0.885-0.746,0.885-1.494
				c0.014-0.749-0.37-1.252-0.854-1.364v-0.049h0.299c0.601,0,1.093-0.691,1.093-1.292c0-0.603-0.492-1.216-1.093-1.216h0.322
				C358.271,261.322,358.763,260.618,358.763,260.017z"/>
		</g>
		<path fill="#DBF1FA" d="M143.479,30.205L143.479,30.205c-4.673,0-8.678,2.959-10.263,7.093v-7.466
			c0-7.255-5.936-13.19-13.19-13.19l0,0c-6.882,0-12.568,5.345-13.134,12.088c-1.967-7.864-9.095-13.743-17.547-13.743l0,0
			c-9.957,0-18.103,8.146-18.103,18.104v20.652h35.594h0.613h25.034h0.733h21.258V41.201
			C154.475,35.153,149.525,30.205,143.479,30.205z"/>
		<path fill="#DBF1FA" d="M305.571,95.365L305.571,95.365c-4.849,0-9.005,3.071-10.649,7.36v-7.748
			c0-7.528-6.158-13.687-13.686-13.687l0,0c-7.143,0-13.042,5.547-13.628,12.545c-2.041-8.162-9.437-14.261-18.207-14.261l0,0
			c-10.331,0-18.785,8.453-18.785,18.785v4.378c-1.64-4.295-5.799-7.373-10.652-7.373l0,0c-6.275,0-11.409,5.134-11.409,11.409
			v13.016h22.062h0.757h36.177h0.637h25.976h0.76h22.058v-13.016C316.979,100.499,311.847,95.365,305.571,95.365z"/>
		<g>
			<g>
				<path fill="#FFFFFF" d="M409.739,70.095c-1.858,2.532-4.292,2.688-6.438,2.824c-1.954,0.125-3.497,0.224-4.712,1.879
					c-1.215,1.654-0.846,3.155-0.38,5.055c0.513,2.088,1.094,4.456-0.764,6.986c-1.858,2.532-4.292,2.687-6.438,2.823
					c-1.952,0.124-3.496,0.222-4.71,1.876c-1.215,1.655-0.847,3.155-0.38,5.055c0.513,2.089,1.093,4.456-0.764,6.987
					c-1.858,2.529-4.291,2.683-6.438,2.819c-1.951,0.125-3.492,0.222-4.706,1.875c-0.382,0.517-1.109,0.629-1.627,0.248
					c-0.519-0.38-0.63-1.108-0.249-1.625c1.856-2.53,4.289-2.684,6.436-2.82c1.952-0.124,3.495-0.222,4.709-1.875
					c1.214-1.654,0.846-3.155,0.38-5.055c-0.513-2.088-1.094-4.456,0.764-6.987c1.858-2.53,4.291-2.685,6.438-2.823
					c1.952-0.124,3.495-0.221,4.71-1.877c1.215-1.654,0.846-3.155,0.38-5.055c-0.513-2.089-1.094-4.457,0.764-6.987
					c1.859-2.532,4.292-2.687,6.439-2.824c1.953-0.125,3.496-0.222,4.711-1.879c1.217-1.656,0.849-3.157,0.383-5.058
					c-0.512-2.09-1.093-4.458,0.767-6.99c0.38-0.518,1.107-0.629,1.626-0.249c0.518,0.38,0.629,1.108,0.25,1.625
					c-1.217,1.655-0.849,3.157-0.383,5.059C411.019,65.196,411.599,67.563,409.739,70.095z"/>
			</g>
			<g>
				<path fill="#FFFFFF" d="M363.267,44.325c-0.189,3.483-2.357,5.106-4.271,6.538c-1.741,1.302-3.115,2.331-3.24,4.609
					c-0.125,2.276,1.13,3.447,2.717,4.931c1.745,1.63,3.725,3.48,3.533,6.961c-0.19,3.483-2.358,5.105-4.271,6.536
					c-1.741,1.301-3.115,2.33-3.24,4.606s1.129,3.447,2.717,4.931c1.746,1.631,3.725,3.48,3.533,6.961
					c-0.19,3.481-2.358,5.102-4.273,6.531c-1.739,1.301-3.113,2.329-3.238,4.604c-0.038,0.711-0.649,1.258-1.36,1.218
					c-0.712-0.038-1.259-0.647-1.221-1.361c0.191-3.481,2.359-5.1,4.272-6.531c1.74-1.3,3.115-2.328,3.24-4.604
					c0.124-2.275-1.13-3.446-2.717-4.93c-1.745-1.631-3.725-3.48-3.534-6.962c0.191-3.481,2.359-5.103,4.272-6.535
					c1.74-1.301,3.115-2.329,3.24-4.606c0.124-2.276-1.13-3.449-2.717-4.932c-1.746-1.631-3.725-3.48-3.534-6.961
					c0.191-3.483,2.359-5.105,4.272-6.537c1.74-1.302,3.115-2.331,3.24-4.61c0.126-2.278-1.129-3.451-2.717-4.935
					c-1.745-1.632-3.724-3.481-3.532-6.964c0.038-0.713,0.648-1.259,1.36-1.22s1.259,0.649,1.22,1.361
					c-0.125,2.278,1.129,3.451,2.717,4.935C361.479,38.993,363.458,40.842,363.267,44.325z"/>
			</g>
		</g>
		<g>
			<g>
				<path fill="#FFFFFF" d="M438.475,176.855c-2.69-0.359-3.817-2.138-4.813-3.708c-0.905-1.428-1.62-2.557-3.379-2.792
					c-1.758-0.234-2.742,0.669-3.989,1.81c-1.37,1.256-2.923,2.679-5.613,2.322c-2.689-0.358-3.816-2.138-4.812-3.708
					c-0.903-1.428-1.619-2.556-3.377-2.791c-1.758-0.233-2.742,0.668-3.989,1.81c-1.37,1.256-2.924,2.68-5.613,2.321
					c-2.688-0.357-3.813-2.138-4.808-3.708c-0.904-1.427-1.618-2.555-3.375-2.789c-0.551-0.074-0.938-0.579-0.864-1.13
					c0.073-0.55,0.579-0.937,1.129-0.863c2.688,0.358,3.815,2.137,4.809,3.708c0.904,1.428,1.618,2.557,3.375,2.791
					c1.759,0.233,2.743-0.668,3.989-1.811c1.37-1.256,2.923-2.679,5.613-2.32c2.688,0.357,3.815,2.136,4.811,3.707
					c0.905,1.429,1.619,2.557,3.378,2.791c1.759,0.234,2.743-0.668,3.989-1.81c1.37-1.256,2.925-2.679,5.612-2.321
					c2.691,0.359,3.817,2.138,4.813,3.709c0.905,1.428,1.619,2.556,3.38,2.79c1.759,0.234,2.745-0.667,3.991-1.809
					c1.373-1.256,2.926-2.679,5.615-2.321c0.552,0.073,0.938,0.579,0.865,1.129c-0.074,0.551-0.579,0.938-1.129,0.864
					c-1.761-0.234-2.745,0.667-3.993,1.81C442.719,175.791,441.166,177.214,438.475,176.855z"/>
			</g>
			<g>
				<path fill="#FFFFFF" d="M428.484,144.61c-2.001,0.443-3.263-0.526-4.377-1.383c-1.012-0.779-1.812-1.395-3.12-1.104
					c-1.308,0.29-1.771,1.185-2.361,2.318c-0.646,1.246-1.379,2.659-3.38,3.101c-2,0.444-3.262-0.526-4.374-1.383
					c-1.013-0.779-1.812-1.395-3.12-1.104c-1.308,0.289-1.772,1.185-2.36,2.318c-0.646,1.246-1.379,2.658-3.38,3.102
					c-2,0.443-3.261-0.529-4.372-1.384c-1.013-0.779-1.811-1.395-3.118-1.104c-0.409,0.089-0.815-0.168-0.906-0.578
					c-0.089-0.409,0.168-0.814,0.578-0.905c1.999-0.444,3.26,0.528,4.372,1.383c1.012,0.779,1.811,1.396,3.118,1.106
					c1.307-0.291,1.771-1.185,2.36-2.317c0.646-1.247,1.379-2.659,3.38-3.103c2.001-0.443,3.262,0.528,4.374,1.383
					c1.013,0.779,1.812,1.395,3.12,1.104c1.309-0.289,1.773-1.185,2.361-2.318c0.646-1.246,1.38-2.657,3.38-3.1
					c2.002-0.444,3.262,0.526,4.375,1.383c1.014,0.778,1.813,1.394,3.122,1.104c1.309-0.29,1.773-1.185,2.362-2.318
					c0.647-1.246,1.381-2.659,3.382-3.102c0.409-0.091,0.814,0.168,0.905,0.577c0.091,0.41-0.167,0.815-0.576,0.907
					c-1.31,0.289-1.774,1.185-2.363,2.318C431.219,142.755,430.486,144.167,428.484,144.61z"/>
			</g>
			<g>
				<path fill="#FFFFFF" d="M417.375,114.423c-1.765,1.043-3.266,0.512-4.59,0.043c-1.204-0.427-2.155-0.762-3.309-0.081
					s-1.318,1.676-1.525,2.936c-0.229,1.385-0.487,2.956-2.251,3.997c-1.765,1.042-3.265,0.511-4.588,0.043
					c-1.203-0.426-2.154-0.763-3.309-0.082c-1.153,0.682-1.316,1.677-1.523,2.936c-0.229,1.385-0.487,2.956-2.251,3.997
					s-3.264,0.51-4.587,0.041c-1.203-0.425-2.154-0.763-3.307-0.082c-0.36,0.213-0.825,0.093-1.039-0.268
					c-0.213-0.361-0.094-0.826,0.267-1.041c1.765-1.042,3.264-0.51,4.586-0.041c1.203,0.426,2.154,0.763,3.308,0.083
					c1.153-0.682,1.316-1.676,1.525-2.936c0.227-1.385,0.485-2.956,2.249-3.998c1.766-1.042,3.265-0.51,4.588-0.042
					c1.203,0.426,2.155,0.763,3.309,0.082s1.317-1.677,1.525-2.937c0.229-1.385,0.486-2.955,2.251-3.996
					c1.765-1.042,3.264-0.513,4.588-0.043c1.204,0.425,2.155,0.762,3.311,0.08c1.153-0.681,1.317-1.677,1.526-2.938
					c0.229-1.385,0.487-2.956,2.252-3.997c0.361-0.214,0.827-0.093,1.04,0.267c0.214,0.361,0.094,0.827-0.268,1.041
					c-1.154,0.682-1.317,1.678-1.526,2.937C419.398,111.81,419.14,113.38,417.375,114.423z"/>
			</g>
		</g>
		<g>
			<g>
				<path fill="none" stroke="#FFFFFF" stroke-width="0.75" stroke-linecap="round" stroke-linejoin="round" d="M156.145,106.075
					c0,0-0.457,0.279-1.298,0.742"/>
				
					<path fill="none" stroke="#FFFFFF" stroke-width="0.75" stroke-linecap="round" stroke-linejoin="round" stroke-dasharray="3.0043,3.0043" d="
					M152.186,108.202c-9.28,4.586-32.967,13.954-50.382,0.549c-22.114-17.022-3.171-32.818,14.574-21.789
					c17.744,11.029-1.1,34.227-23.711,37.079c-22.611,2.852-77.043-0.593-78.006,33.163c-0.963,33.755,67.785,13.421,68.575,44.783
					c0.79,31.363-46.538,86.25-14.006,96.48c32.533,10.229,74.044-23.086,79.343-12.07c4.641,9.648-6.713,14.814-10.439,21.172"/>
				<path fill="none" stroke="#FFFFFF" stroke-width="0.75" stroke-linecap="round" stroke-linejoin="round" d="M137.473,308.92
					c-0.183,0.473-0.318,0.952-0.396,1.443"/>
			</g>
		</g>
		
			<path fill="none" stroke="#FFFFFF" stroke-width="0.75" stroke-linecap="round" stroke-linejoin="round" stroke-miterlimit="10" stroke-dasharray="3" d="
			M176.112,412.559c0,0,12.735,37.687,49.786,23.119c37.051-14.565,56.629-41.296,81.75-22.642
			c25.122,18.654,52.798,23.294,53.168,0c0.326-20.474-57.313-51.629-57.313-51.629"/>
	</g>
	<path fill="#EF4733" d="M156.658,257.247c0-3.859-3.129-6.986-6.988-6.986c-2.526,0-4.732,1.345-5.96,3.354
		c-1.227-2.01-3.434-3.354-5.96-3.354c-3.858,0-6.986,3.127-6.986,6.986c0,1.615,0.553,3.098,1.474,4.282l-0.005,0.004
		l11.478,15.238l11.478-15.238l-0.005-0.004C156.103,260.345,156.658,258.862,156.658,257.247z"/>
	<path fill="#EF4733" d="M165.934,229.174c0-1.836-1.489-3.325-3.325-3.325c-1.203,0-2.253,0.641-2.837,1.596
		c-0.584-0.955-1.633-1.596-2.836-1.596c-1.837,0-3.325,1.489-3.325,3.325c0,0.77,0.263,1.474,0.701,2.037l-0.002,0.002l5.462,7.252
		l5.463-7.252l-0.002-0.002C165.67,230.647,165.934,229.943,165.934,229.174z"/>
	<path fill="#EF4733" d="M268.929,162.512c0-1.836-1.489-3.325-3.325-3.325c-1.202,0-2.252,0.64-2.836,1.596
		c-0.584-0.957-1.635-1.596-2.837-1.596c-1.836,0-3.323,1.489-3.323,3.325c0,0.768,0.263,1.474,0.701,2.036l-0.003,0.002
		l5.462,7.252l5.462-7.252l-0.003-0.002C268.665,163.985,268.929,163.279,268.929,162.512z"/>
	<path fill="#EF4733" d="M313.81,286.977c0-1.836-1.488-3.324-3.325-3.324c-1.201,0-2.252,0.641-2.836,1.596
		c-0.583-0.955-1.633-1.596-2.835-1.596c-1.838,0-3.325,1.488-3.325,3.324c0,0.77,0.264,1.473,0.701,2.037l-0.002,0.002l5.461,7.251
		l5.462-7.251l-0.002-0.002C313.546,288.449,313.81,287.746,313.81,286.977z"/>
	<path fill="#EF4733" d="M331.322,292.285c0-0.918-0.745-1.662-1.663-1.662c-0.601,0-1.126,0.319-1.417,0.797
		c-0.293-0.478-0.818-0.797-1.418-0.797c-0.92,0-1.663,0.744-1.663,1.662c0,0.384,0.132,0.736,0.351,1.018l-0.001,0.003l2.731,3.625
		l2.73-3.625l-0.001-0.003C331.19,293.021,331.322,292.669,331.322,292.285z"/>
	<path fill="#EF4733" d="M216.296,358.451c0-0.918-0.745-1.664-1.663-1.664c-0.601,0-1.126,0.321-1.418,0.799
		c-0.292-0.478-0.818-0.799-1.419-0.799c-0.918,0-1.661,0.746-1.661,1.664c0,0.384,0.131,0.736,0.35,1.018l0,0l2.73,3.626
		l2.731-3.626h-0.001C216.165,359.188,216.296,358.835,216.296,358.451z"/>
</g>
</svg>
