<svg xmlns="http://www.w3.org/2000/svg" width="22.356" height="18.157" viewBox="0 0 22.356 18.157"><path d="M20.058,7.906c.014.2.014.4.014.6A12.947,12.947,0,0,1,7.036,21.538,12.948,12.948,0,0,1,0,19.481a9.478,9.478,0,0,0,1.106.057A9.176,9.176,0,0,0,6.795,17.58,4.59,4.59,0,0,1,2.511,14.4a5.778,5.778,0,0,0,.865.071,4.846,4.846,0,0,0,1.206-.156,4.582,4.582,0,0,1-3.674-4.5V9.764a4.614,4.614,0,0,0,2.071.582A4.589,4.589,0,0,1,1.56,4.218a13.024,13.024,0,0,0,9.447,4.795,5.172,5.172,0,0,1-.113-1.05,4.586,4.586,0,0,1,7.929-3.135,9.021,9.021,0,0,0,2.908-1.106,4.569,4.569,0,0,1-2.014,2.525,9.185,9.185,0,0,0,2.638-.709,9.849,9.849,0,0,1-2.3,2.369Z" transform="translate(0 -3.381)" fill="#fff"/></svg>