<?xml version="1.0" encoding="UTF-8"?>
<svg width="114px" height="124px" viewBox="0 0 114 124" version="1.1" xmlns="http://www.w3.org/2000/svg" xmlns:xlink="http://www.w3.org/1999/xlink">
    <title>hands/wave</title>
    <g id="hands/wave" stroke="none" stroke-width="1" fill="none" fill-rule="evenodd">
        <g id="Group-9">
            <path d="M96.8512,63.3926 C92.9012,62.7526 88.9012,62.6926 84.9222,62.3726 C83.8322,62.2826 82.7522,62.1026 81.6622,61.9726 C81.6622,61.9026 81.6622,61.8326 81.6522,61.7626 C82.3022,61.6826 82.9422,61.5526 83.5822,61.5426 C88.9202,61.4596 108.6692,59.2516 102.5122,49.9726 C101.8412,48.9626 100.8112,48.6326 99.7922,48.3626 C93.4522,46.6846 85.7582,48.4846 80.0922,48.3866 C76.1912,48.3186 72.2482,48.5916 68.5562,49.8526 C67.4522,50.2296 66.7972,49.4716 67.5302,48.7026 C67.7912,48.4286 68.1522,48.2766 68.5062,48.1456 C74.9672,45.7476 82.1552,46.6666 88.5592,43.6976 C92.4022,41.9156 99.4032,36.8676 95.4522,32.0666 C94.7182,31.1756 93.6562,30.6016 92.5222,30.3826 C85.4222,29.0096 78.5642,32.4816 71.8852,34.2516 C65.2912,35.9996 58.6922,37.7286 52.0812,39.4076 C47.4282,40.5886 52.4252,35.4496 53.1432,34.3636 C54.3252,32.5746 55.4062,30.7136 56.3092,28.7686 C58.0052,25.1206 59.3342,20.8246 58.2862,16.8006 C57.9202,15.3966 57.1522,14.2316 55.7402,13.7176 C51.8812,12.3116 46.9142,18.0226 44.8692,20.6426 C42.1282,24.1516 39.6262,27.8526 35.9172,30.4286 C32.1322,33.0556 27.5542,34.3316 23.5082,36.4806 C21.7802,37.3986 20.1872,38.5976 18.7642,39.9776 C17.1942,41.5016 15.3442,42.6826 13.3032,43.4706 C5.8132,46.3596 0.5002,53.6276 0.5002,62.1366 C0.5002,71.9666 7.5912,80.1396 16.9372,81.8196 C18.0932,82.0276 23.2172,84.3206 24.6822,85.1566 C33.9012,90.4126 47.5552,89.3526 57.5662,87.4006 C64.9472,85.9616 72.3192,88.7266 79.7082,88.7026 C82.7042,88.6916 87.1442,88.4506 89.2582,85.9606 C91.3512,83.4946 89.7742,80.2886 87.2212,79.0446 C84.2262,77.5846 80.5932,77.3696 77.3262,77.1616 C73.3172,76.9066 69.3532,76.0536 65.3372,75.7596 C65.0182,75.7366 64.6212,75.6506 64.5502,75.3386 C64.4552,74.9186 65.0302,74.7016 65.4592,74.6666 C72.4332,74.1016 79.7362,74.4006 86.6732,75.2566 C90.8792,75.7746 96.2692,76.7636 100.0152,74.1556 C102.2762,72.5816 104.0342,69.0746 102.6452,66.3986 C101.5712,64.3286 98.8952,63.7236 96.8512,63.3926" id="Fill-1" fill="#FED107"></path>
            <path d="M25.7725,64.1001 C26.8565,64.1501 28.0095,63.6741 28.8995,63.1301 C30.1265,62.3791 31.2115,61.3671 32.2995,60.4331 C34.4995,58.5471 36.6635,56.5851 38.4465,54.2881 C39.5295,52.8931 40.4615,51.3811 41.2365,49.7931 C41.9075,48.4161 42.9775,46.5241 42.6535,44.9391 C42.5225,44.2961 41.8705,43.6401 41.1705,43.9141 C40.3585,44.2331 40.3145,45.4831 40.1005,46.1891 C38.5895,51.1831 34.8735,55.3561 31.0105,58.7151 C29.3895,60.1241 27.6055,61.2501 25.8035,62.4081 C25.4025,62.6661 25.0355,63.0361 24.9475,63.5041 C24.9235,63.6291 24.9235,63.7681 24.9965,63.8711 C25.0785,63.9881 25.2285,64.0311 25.3685,64.0561 C25.5015,64.0791 25.6365,64.0941 25.7725,64.1001" id="Fill-3" fill="#F49C1B"></path>
            <path d="M62.4107,54.543 C62.4247,53.739 62.4027,52.934 62.3307,52.127 C62.2637,51.366 62.1457,50.598 61.8387,49.897 C61.7137,49.613 61.5457,49.329 61.2757,49.176 C60.2707,48.609 59.7767,50.294 59.7237,50.99 C59.6547,51.905 59.8247,52.851 59.8577,53.769 C59.8967,54.863 59.8957,55.959 59.8527,57.052 C59.7767,58.992 59.5727,60.927 59.2387,62.839 C58.9017,64.769 58.7157,66.72 58.2937,68.64 C57.9787,70.071 57.5847,71.486 57.0667,72.858 C56.7457,73.708 55.4427,75.49 56.4637,76.263 C59.0057,78.188 60.8387,67.583 61.0327,66.338 C61.3037,64.597 61.5537,62.852 61.7827,61.105 C62.0677,58.928 62.3727,56.739 62.4107,54.543" id="Fill-5" fill="#F49C1B"></path>
            <polygon id="Stroke-7" points="0.5 123.706 113.559 123.706 113.559 0.499 0.5 0.499"></polygon>
        </g>
        <path d="M26.2523118,63.4408875 C34.8902612,59.5115825 41.5041544,48.6230294 41.5041544,45.1472641" id="Path-12" stroke="#000000" stroke-width="2" stroke-linecap="round"></path>
        <path d="M60.7963092,50.4953514 C60.7963092,58.651908 60.5303946,65.7355498 57.8475135,74.6240343" id="Path-13" stroke="#000000" stroke-width="2" stroke-linecap="round"></path>
    </g>
</svg>