<svg xmlns="http://www.w3.org/2000/svg" width="20.491" height="14.408" viewBox="0 0 20.491 14.408"><path d="M21.113,6.754A2.575,2.575,0,0,0,19.3,4.931C17.7,4.5,11.3,4.5,11.3,4.5s-6.408,0-8.006.431A2.575,2.575,0,0,0,1.478,6.754a27.01,27.01,0,0,0-.428,4.964,27.01,27.01,0,0,0,.428,4.964A2.536,2.536,0,0,0,3.29,18.477c1.6.431,8.006.431,8.006.431s6.408,0,8.006-.431a2.536,2.536,0,0,0,1.812-1.794,27.01,27.01,0,0,0,.428-4.964,27.01,27.01,0,0,0-.428-4.964ZM9.2,14.765V8.672l5.356,3.047L9.2,14.765Z" transform="translate(-1.05 -4.5)" fill="#fff"/></svg>